<svg xmlns="http://www.w3.org/2000/svg" xmlns:xlink="http://www.w3.org/1999/xlink" xmlns:lucid="lucid" width="1068" height="984"><g transform="translate(-351 -33)" lucid:page-tab-id="0_0"><path d="M0 0h1760v1360H0z" fill="#fff"/><path d="M433.15 105.02a8 8 0 0 1 8-8h836.75a8 8 0 0 1 8 8v25.16a8 8 0 0 1-8 8H441.15a8 8 0 0 1-8-8z" stroke="#000" stroke-opacity="0" stroke-width="2" fill="#fff" fill-opacity="0"/><use xlink:href="#a" transform="matrix(1,0,0,1,437.1465527853429,101.02314752458881) translate(354.60938271604937 25.782777777777778)"/><use xlink:href="#b" transform="matrix(1,0,0,1,437.1465527853429,101.02314752458881) translate(441.79827160493824 25.782777777777778)"/><path d="M608.63 136.84h505.86M608.66 136.84h-1.02M1114.47 136.84h1.02" stroke="#a9afb8" stroke-width="2" fill="none"/><path d="M433.15 146.18a8 8 0 0 1 8-8h837.7a8 8 0 0 1 8 8v2.84a8 8 0 0 1-8 8h-837.7a8 8 0 0 1-8-8z" stroke="#000" stroke-opacity="0" stroke-width="2" fill="#fff" fill-opacity="0"/><use xlink:href="#c" transform="matrix(1,0,0,1,437.1465527853434,142.1783714814876) translate(320.00074074074075 14.917037037037037)"/><use xlink:href="#d" transform="matrix(1,0,0,1,437.1465527853434,142.1783714814876) translate(369.246316872428 14.917037037037037)"/><use xlink:href="#e" transform="matrix(1,0,0,1,437.1465527853434,142.1783714814876) translate(427.58469135802466 14.917037037037037)"/><use xlink:href="#f" transform="matrix(1,0,0,1,437.1465527853434,142.1783714814876) translate(440.0341769547325 14.917037037037037)"/><use xlink:href="#g" transform="matrix(1,0,0,1,437.1465527853434,142.1783714814876) translate(473.13366255144035 14.917037037037037)"/><use xlink:href="#h" transform="matrix(1,0,0,1,437.1465527853434,142.1783714814876) translate(498.6274897119341 14.917037037037037)"/><path d="M420 348a8 8 0 0 1 8-8h184a8 8 0 0 1 8 8v152a8 8 0 0 1-8 8H428a8 8 0 0 1-8-8z" fill="#fff"/><path d="M420 348a8 8 0 0 1 8-8h184a8 8 0 0 1 8 8v152a8 8 0 0 1-8 8H428a8 8 0 0 1-8-8zM420 380h200M480 380v128" stroke="#3a414a" fill="none"/><use xlink:href="#i" transform="matrix(1,0,0,1,430,340) translate(65.025 23.6)"/><use xlink:href="#j" transform="matrix(1,0,0,1,425,382.5) translate(12.524999999999999 17.1)"/><use xlink:href="#k" transform="matrix(1,0,0,1,485,382.5) translate(32.05 17.1)"/><use xlink:href="#l" transform="matrix(1,0,0,1,485,414.5) translate(42.525 17.1)"/><use xlink:href="#m" transform="matrix(1,0,0,1,485,446.5) translate(43.574999999999996 17.1)"/><use xlink:href="#n" transform="matrix(1,0,0,1,485,478.5) translate(26.549999999999997 17.1)"/><path d="M740 348a8 8 0 0 1 8-8h184a8 8 0 0 1 8 8v152a8 8 0 0 1-8 8H748a8 8 0 0 1-8-8z" fill="#fff"/><path d="M740 348a8 8 0 0 1 8-8h184a8 8 0 0 1 8 8v152a8 8 0 0 1-8 8H748a8 8 0 0 1-8-8zM740 380h200M800 380v128" stroke="#3a414a" fill="none"/><use xlink:href="#o" transform="matrix(1,0,0,1,750,340) translate(57.05 23.6)"/><use xlink:href="#j" transform="matrix(1,0,0,1,745,382.5) translate(12.524999999999999 17.1)"/><use xlink:href="#p" transform="matrix(1,0,0,1,805,382.5) translate(23.599999999999994 17.1)"/><use xlink:href="#q" transform="matrix(1,0,0,1,805,414.5) translate(13.100000000000001 17.1)"/><use xlink:href="#r" transform="matrix(1,0,0,1,805,446.5) translate(18.575000000000003 17.1)"/><use xlink:href="#s" transform="matrix(1,0,0,1,745,478.5) translate(13.049999999999999 17.1)"/><use xlink:href="#t" transform="matrix(1,0,0,1,805,478.5) translate(32.05 17.1)"/><path d="M640.5 396H668a12 12 0 0 1 12 12v72a12 12 0 0 0 12 12h27.5" stroke="#3a414a" fill="none"/><path d="M640.5 406v-20M620.5 396h20" stroke="#3a414a" fill="#fff"/><path d="M739.28 502l-20-10 20-10" stroke="#3a414a" fill="#fff" fill-opacity="0"/><path d="M739.28 492h-20M719.28 482v20" stroke="#3a414a" fill="#fff"/><path d="M740 578.98a8 8 0 0 1 8-8h184a8 8 0 0 1 8 8v120a8 8 0 0 1-8 8H748a8 8 0 0 1-8-8z" fill="#fff"/><path d="M740 578.98a8 8 0 0 1 8-8h184a8 8 0 0 1 8 8v120a8 8 0 0 1-8 8H748a8 8 0 0 1-8-8zM740 610.98h200M800 610.98v96" stroke="#3a414a" fill="none"/><use xlink:href="#u" transform="matrix(1,0,0,1,750,570.9768524753604) translate(60.724999999999994 23.6)"/><use xlink:href="#j" transform="matrix(1,0,0,1,745,613.4768524753604) translate(12.524999999999999 17.1)"/><use xlink:href="#v" transform="matrix(1,0,0,1,805,613.4768524753604) translate(27.574999999999996 17.1)"/><use xlink:href="#w" transform="matrix(1,0,0,1,805,645.4768524753604) translate(51.05 17.1)"/><use xlink:href="#x" transform="matrix(1,0,0,1,805,677.4768524753604) translate(19.599999999999994 17.1)"/><path d="M740 788a8 8 0 0 1 8-8h184a8 8 0 0 1 8 8v88a8 8 0 0 1-8 8H748a8 8 0 0 1-8-8z" fill="#fff"/><path d="M740 788a8 8 0 0 1 8-8h184a8 8 0 0 1 8 8v88a8 8 0 0 1-8 8H748a8 8 0 0 1-8-8zM740 820h200M800 820v64" stroke="#3a414a" fill="none"/><use xlink:href="#y" transform="matrix(1,0,0,1,750,780) translate(63.254000000000005 26.794)"/><use xlink:href="#j" transform="matrix(1,0,0,1,745,822.5) translate(12.524999999999999 17.1)"/><use xlink:href="#z" transform="matrix(1,0,0,1,805,822.5) translate(29.075000000000003 17.1)"/><use xlink:href="#l" transform="matrix(1,0,0,1,805,854.5) translate(42.525 17.1)"/><path d="M1080 649.95a8 8 0 0 1 8-8h244a8 8 0 0 1 8 8v88a8 8 0 0 1-8 8h-244a8 8 0 0 1-8-8z" fill="#fff"/><path d="M1080 649.95a8 8 0 0 1 8-8h244a8 8 0 0 1 8 8v88a8 8 0 0 1-8 8h-244a8 8 0 0 1-8-8zM1080 681.95h260M1161.33 681.95v64" stroke="#3a414a" fill="none"/><use xlink:href="#A" transform="matrix(1,0,0,1,1090,641.9537049507207) translate(100.55 23.6)"/><use xlink:href="#B" transform="matrix(1,0,0,1,1085,684.4537049507207) translate(4.074999999999996 17.1)"/><use xlink:href="#C" transform="matrix(1,0,0,1,1085,684.4537049507207) translate(34.025 17.1)"/><use xlink:href="#D" transform="matrix(1,0,0,1,1085,684.4537049507207) translate(44.025 17.1)"/><use xlink:href="#v" transform="matrix(1,0,0,1,1166.333333333333,684.4537049507207) translate(47.074999999999996 17.1)"/><use xlink:href="#B" transform="matrix(1,0,0,1,1085,716.4537049507207) translate(4.074999999999996 17.1)"/><use xlink:href="#C" transform="matrix(1,0,0,1,1085,716.4537049507207) translate(34.025 17.1)"/><use xlink:href="#D" transform="matrix(1,0,0,1,1085,716.4537049507207) translate(44.025 17.1)"/><use xlink:href="#z" transform="matrix(1,0,0,1,1166.333333333333,716.4537049507207) translate(48.575 17.1)"/><path d="M960.5 799.84H998a12 12 0 0 0 12-12v-45.9a12 12 0 0 1 12-12h38.1" stroke="#3a414a" fill="none"/><path d="M960.5 809.84v-20M940.5 799.84h20" stroke="#3a414a" fill="#fff"/><path d="M1079.28 739.95l-20-10 20-10" stroke="#3a414a" fill="#fff" fill-opacity="0"/><path d="M1079.28 729.95h-20" stroke="#3a414a" fill="#fff"/><path d="M960.5 626.92H998a12 12 0 0 1 12 12v47.03a12 12 0 0 0 12 12h38.1" stroke="#3a414a" fill="none"/><path d="M960.5 636.92v-20M940.5 626.92h20" stroke="#3a414a" fill="#fff"/><path d="M1079.28 707.95l-20-10 20-10" stroke="#3a414a" fill="#fff" fill-opacity="0"/><path d="M1079.28 697.95h-20" stroke="#3a414a" fill="#fff"/><path d="M1080 348a8 8 0 0 1 8-8h244a8 8 0 0 1 8 8v158a8 8 0 0 1-8 8h-244a8 8 0 0 1-8-8z" fill="#fff"/><path d="M1080 348a8 8 0 0 1 8-8h244a8 8 0 0 1 8 8v158a8 8 0 0 1-8 8h-244a8 8 0 0 1-8-8zM1080 380h260M1154.67 380v134" stroke="#3a414a" fill="none"/><use xlink:href="#E" transform="matrix(1,0,0,1,1090,340) translate(78.125 23.6)"/><use xlink:href="#F" transform="matrix(1,0,0,1,1085,382.5) translate(0.5749999999999957 17.1)"/><use xlink:href="#G" transform="matrix(1,0,0,1,1085,382.5) translate(30.525 17.1)"/><use xlink:href="#H" transform="matrix(1,0,0,1,1085,382.5) translate(40.525 17.1)"/><use xlink:href="#I" transform="matrix(1,0,0,1,1159.6666666666667,382.5) translate(46.599999999999994 17.1)"/><use xlink:href="#F" transform="matrix(1,0,0,1,1085,414.5) translate(0.5749999999999957 17.1)"/><use xlink:href="#G" transform="matrix(1,0,0,1,1085,414.5) translate(30.525 17.1)"/><use xlink:href="#H" transform="matrix(1,0,0,1,1085,414.5) translate(40.525 17.1)"/><g><use xlink:href="#J" transform="matrix(1,0,0,1,1159.6666666666667,414.5) translate(50.574999999999996 17.1)"/></g><g><use xlink:href="#K" transform="matrix(1,0,0,1,1159.6666666666667,446.5) translate(64 17.1)"/></g><g><use xlink:href="#L" transform="matrix(1,0,0,1,1159.6666666666667,478.5) translate(20.555666666666667 23.396)"/></g><path d="M960.5 395.86h49.43a.07.07 0 0 1 .07.07.07.07 0 0 0 .07.07h49.43" stroke="#3a414a" fill="none"/><path d="M960.5 405.86v-20M940.5 395.86h20M1059.5 386v20M1079.5 396h-20" stroke="#3a414a" fill="#fff"/><path d="M960.5 626.92H998a12 12 0 0 0 12-12V440a12 12 0 0 1 12-12h37.5" stroke="#3a414a" fill="none"/><path d="M960.5 636.92v-20M940.5 626.92h20M1059.5 418v20M1079.5 428h-20" stroke="#3a414a" fill="#fff"/><defs><path fill="#a9afb8" d="M175 0L67-191c6 58 2 128 3 191H24v-248h59L193-55c-6-58-2-129-3-193h46V0h-61" id="M"/><path fill="#a9afb8" d="M185-48c-13 30-37 53-82 52C43 2 14-33 14-96s30-98 90-98c62 0 83 45 84 108H66c0 31 8 55 39 56 18 0 30-7 34-22zm-45-69c5-46-57-63-70-21-2 6-4 13-4 21h74" id="N"/><path fill="#a9afb8" d="M115-3C79 11 28 4 28-45v-112H4v-33h27l15-45h31v45h36v33H77v99c-1 23 16 31 38 25v30" id="O"/><path fill="#a9afb8" d="M121-226c-27-7-43 5-38 36h38v33H83V0H34v-157H6v-33h28c-9-59 32-81 87-68v32" id="P"/><path fill="#a9afb8" d="M25 0v-261h50V0H25" id="Q"/><path fill="#a9afb8" d="M25-224v-37h50v37H25zM25 0v-190h50V0H25" id="R"/><path fill="#a9afb8" d="M144 0l-44-69L55 0H2l70-98-66-92h53l41 62 40-62h54l-67 91 71 99h-54" id="S"/><g id="a"><use transform="matrix(0.0728395061728395,0,0,0.0728395061728395,0,0)" xlink:href="#M"/><use transform="matrix(0.0728395061728395,0,0,0.0728395061728395,18.86543209876543,0)" xlink:href="#N"/><use transform="matrix(0.0728395061728395,0,0,0.0728395061728395,33.43333333333333,0)" xlink:href="#O"/><use transform="matrix(0.0728395061728395,0,0,0.0728395061728395,42.10123456790124,0)" xlink:href="#P"/><use transform="matrix(0.0728395061728395,0,0,0.0728395061728395,50.76913580246913,0)" xlink:href="#Q"/><use transform="matrix(0.0728395061728395,0,0,0.0728395061728395,58.05308641975308,0)" xlink:href="#R"/><use transform="matrix(0.0728395061728395,0,0,0.0728395061728395,65.33703703703704,0)" xlink:href="#S"/></g><path fill="#a9afb8" d="M24 0v-248h195v40H76v63h132v40H76v65h150V0H24" id="T"/><path fill="#a9afb8" d="M240-174c0 40-23 61-54 70L253 0h-59l-57-94H76V0H24v-248c93 4 217-23 216 74zM76-134c48-2 112 12 112-38 0-48-66-32-112-35v73" id="U"/><path fill="#a9afb8" d="M24-248c120-7 223 5 221 122C244-46 201 0 124 0H24v-248zM76-40c74 7 117-18 117-86 0-67-45-88-117-82v168" id="V"/><g id="b"><use transform="matrix(0.0728395061728395,0,0,0.0728395061728395,0,0)" xlink:href="#T"/><use transform="matrix(0.0728395061728395,0,0,0.0728395061728395,17.48148148148148,0)" xlink:href="#U"/><use transform="matrix(0.0728395061728395,0,0,0.0728395061728395,36.34691358024691,0)" xlink:href="#V"/></g><path fill="#a9afb8" d="M233-177c-1 41-23 64-60 70L243 0h-38l-65-103H63V0H30v-248c88 3 205-21 203 71zM63-129c60-2 137 13 137-47 0-61-80-42-137-45v92" id="W"/><path fill="#a9afb8" d="M100-194c62-1 85 37 85 99 1 63-27 99-86 99S16-35 15-95c0-66 28-99 85-99zM99-20c44 1 53-31 53-75 0-43-8-75-51-75s-53 32-53 75 10 74 51 75" id="X"/><path fill="#a9afb8" d="M106-169C34-169 62-67 57 0H25v-261h32l-1 103c12-21 28-36 61-36 89 0 53 116 60 194h-32v-121c2-32-8-49-39-48" id="Y"/><path fill="#a9afb8" d="M141-36C126-15 110 5 73 4 37 3 15-17 15-53c-1-64 63-63 125-63 3-35-9-54-41-54-24 1-41 7-42 31l-33-3c5-37 33-52 76-52 45 0 72 20 72 64v82c-1 20 7 32 28 27v20c-31 9-61-2-59-35zM48-53c0 20 12 33 32 33 41-3 63-29 60-74-43 2-92-5-92 41" id="Z"/><path fill="#a9afb8" d="M117-194c89-4 53 116 60 194h-32v-121c0-31-8-49-39-48C34-167 62-67 57 0H25l-1-190h30c1 10-1 24 2 32 11-22 29-35 61-36" id="aa"/><g id="c"><use transform="matrix(0.04248971193415638,0,0,0.04248971193415638,0,0)" xlink:href="#W"/><use transform="matrix(0.04248971193415638,0,0,0.04248971193415638,11.004835390946502,0)" xlink:href="#X"/><use transform="matrix(0.04248971193415638,0,0,0.04248971193415638,19.502777777777776,0)" xlink:href="#Y"/><use transform="matrix(0.04248971193415638,0,0,0.04248971193415638,28.000720164609046,0)" xlink:href="#Z"/><use transform="matrix(0.04248971193415638,0,0,0.04248971193415638,36.498662551440326,0)" xlink:href="#aa"/></g><path fill="#a9afb8" d="M137 0h-34L2-248h35l83 218 83-218h36" id="ab"/><path fill="#a9afb8" d="M135-143c-3-34-86-38-87 0 15 53 115 12 119 90S17 21 10-45l28-5c4 36 97 45 98 0-10-56-113-15-118-90-4-57 82-63 122-42 12 7 21 19 24 35" id="ac"/><path fill="#a9afb8" d="M108 0H70L1-190h34L89-25l56-165h34" id="ad"/><g id="d"><use transform="matrix(0.04248971193415638,0,0,0.04248971193415638,0,0)" xlink:href="#ab"/><use transform="matrix(0.04248971193415638,0,0,0.04248971193415638,9.050308641975308,0)" xlink:href="#Z"/><use transform="matrix(0.04248971193415638,0,0,0.04248971193415638,17.548251028806582,0)" xlink:href="#ac"/><use transform="matrix(0.04248971193415638,0,0,0.04248971193415638,25.19639917695473,0)" xlink:href="#Z"/><use transform="matrix(0.04248971193415638,0,0,0.04248971193415638,33.694341563786004,0)" xlink:href="#ad"/><use transform="matrix(0.04248971193415638,0,0,0.04248971193415638,41.34248971193415,0)" xlink:href="#Z"/></g><path fill="#a9afb8" d="M32 76v-337h29V76H32" id="ae"/><use transform="matrix(0.04248971193415638,0,0,0.04248971193415638,0,0)" xlink:href="#ae" id="e"/><path fill="#a9afb8" d="M240 0l2-218c-23 76-54 145-80 218h-23L58-218 59 0H30v-248h44l77 211c21-75 51-140 76-211h43V0h-30" id="af"/><path fill="#a9afb8" d="M179-190L93 31C79 59 56 82 12 73V49c39 6 53-20 64-50L1-190h34L92-34l54-156h33" id="ag"/><g id="f"><use transform="matrix(0.04248971193415638,0,0,0.04248971193415638,0,0)" xlink:href="#af"/><use transform="matrix(0.04248971193415638,0,0,0.04248971193415638,12.704423868312757,0)" xlink:href="#Z"/><use transform="matrix(0.04248971193415638,0,0,0.04248971193415638,21.20236625514403,0)" xlink:href="#ag"/></g><path fill="#a9afb8" d="M27 0v-27h64v-190l-56 39v-29l58-41h29v221h61V0H27" id="ah"/><path fill="#a9afb8" d="M101-251c68 0 85 55 85 127S166 4 100 4C33 4 14-52 14-124c0-73 17-127 87-127zm-1 229c47 0 54-49 54-102s-4-102-53-102c-51 0-55 48-55 102 0 53 5 102 54 102" id="ai"/><path fill="#a9afb8" d="M68-38c1 34 0 65-14 84H32c9-13 17-26 17-46H33v-38h35" id="aj"/><g id="g"><use transform="matrix(0.04248971193415638,0,0,0.04248971193415638,0,0)" xlink:href="#ah"/><use transform="matrix(0.04248971193415638,0,0,0.04248971193415638,8.497942386831275,0)" xlink:href="#ai"/><use transform="matrix(0.04248971193415638,0,0,0.04248971193415638,16.99588477366255,0)" xlink:href="#aj"/></g><path fill="#a9afb8" d="M101-251c82-7 93 87 43 132L82-64C71-53 59-42 53-27h129V0H18c2-99 128-94 128-182 0-28-16-43-45-43s-46 15-49 41l-32-3c6-41 34-60 81-64" id="ak"/><path fill="#a9afb8" d="M126-127c33 6 58 20 58 59 0 88-139 92-164 29-3-8-5-16-6-25l32-3c6 27 21 44 54 44 32 0 52-15 52-46 0-38-36-46-79-43v-28c39 1 72-4 72-42 0-27-17-43-46-43-28 0-47 15-49 41l-32-3c6-42 35-63 81-64 48-1 79 21 79 65 0 36-21 52-52 59" id="al"/><g id="h"><use transform="matrix(0.04248971193415638,0,0,0.04248971193415638,0,0)" xlink:href="#ak"/><use transform="matrix(0.04248971193415638,0,0,0.04248971193415638,8.497942386831275,0)" xlink:href="#ai"/><use transform="matrix(0.04248971193415638,0,0,0.04248971193415638,16.99588477366255,0)" xlink:href="#ak"/><use transform="matrix(0.04248971193415638,0,0,0.04248971193415638,25.493827160493822,0)" xlink:href="#al"/></g><path d="M238-95c0 69-44 99-111 99C63 4 22-25 22-93v-155h51v151c-1 38 19 59 55 60 90 1 49-130 58-211h52v153" id="am"/><path d="M137-138c1-29-70-34-71-4 15 46 118 7 119 86 1 83-164 76-172 9l43-7c4 19 20 25 44 25 33 8 57-30 24-41C81-84 22-81 20-136c-2-80 154-74 161-7" id="an"/><path d="M185-48c-13 30-37 53-82 52C43 2 14-33 14-96s30-98 90-98c62 0 83 45 84 108H66c0 31 8 55 39 56 18 0 30-7 34-22zm-45-69c5-46-57-63-70-21-2 6-4 13-4 21h74" id="ao"/><path d="M135-150c-39-12-60 13-60 57V0H25l-1-190h47c2 13-1 29 3 40 6-28 27-53 61-41v41" id="ap"/><g id="i"><use transform="matrix(0.05,0,0,0.05,0,0)" xlink:href="#am"/><use transform="matrix(0.05,0,0,0.05,12.950000000000001,0)" xlink:href="#an"/><use transform="matrix(0.05,0,0,0.05,22.950000000000003,0)" xlink:href="#ao"/><use transform="matrix(0.05,0,0,0.05,32.95,0)" xlink:href="#ap"/><use transform="matrix(0.05,0,0,0.05,39.95,0)" xlink:href="#an"/></g><path d="M24-248c93 1 206-16 204 79-1 75-69 88-152 82V0H24v-248zm52 121c47 0 100 7 100-41 0-47-54-39-100-39v80" id="aq"/><path d="M195 0l-88-114-31 24V0H24v-248h52v113l112-113h60L142-143 257 0h-62" id="ar"/><g id="j"><use transform="matrix(0.05,0,0,0.05,0,0)" xlink:href="#aq"/><use transform="matrix(0.05,0,0,0.05,12,0)" xlink:href="#ar"/></g><path d="M85 4C-2 5 27-109 22-190h50c7 57-23 150 33 157 60-5 35-97 40-157h50l1 190h-47c-2-12 1-28-3-38-12 25-28 42-61 42" id="as"/><path d="M24 0v-248h52V0H24" id="at"/><path d="M-4 44V30h207v14H-4" id="au"/><path d="M24-248c120-7 223 5 221 122C244-46 201 0 124 0H24v-248zM76-40c74 7 117-18 117-86 0-67-45-88-117-82v168" id="av"/><g id="k"><use transform="matrix(0.05,0,0,0.05,0,0)" xlink:href="#as"/><use transform="matrix(0.05,0,0,0.05,10.950000000000001,0)" xlink:href="#an"/><use transform="matrix(0.05,0,0,0.05,20.950000000000003,0)" xlink:href="#ao"/><use transform="matrix(0.05,0,0,0.05,30.950000000000003,0)" xlink:href="#ap"/><use transform="matrix(0.05,0,0,0.05,37.95,0)" xlink:href="#at"/><use transform="matrix(0.05,0,0,0.05,42.95,0)" xlink:href="#au"/><use transform="matrix(0.05,0,0,0.05,52.95,0)" xlink:href="#av"/></g><path d="M117-194c89-4 53 116 60 194h-32v-121c0-31-8-49-39-48C34-167 62-67 57 0H25l-1-190h30c1 10-1 24 2 32 11-22 29-35 61-36" id="aw"/><path d="M141-36C126-15 110 5 73 4 37 3 15-17 15-53c-1-64 63-63 125-63 3-35-9-54-41-54-24 1-41 7-42 31l-33-3c5-37 33-52 76-52 45 0 72 20 72 64v82c-1 20 7 32 28 27v20c-31 9-61-2-59-35zM48-53c0 20 12 33 32 33 41-3 63-29 60-74-43 2-92-5-92 41" id="ax"/><path d="M210-169c-67 3-38 105-44 169h-31v-121c0-29-5-50-35-48C34-165 62-65 56 0H25l-1-190h30c1 10-1 24 2 32 10-44 99-50 107 0 11-21 27-35 58-36 85-2 47 119 55 194h-31v-121c0-29-5-49-35-48" id="ay"/><path d="M100-194c63 0 86 42 84 106H49c0 40 14 67 53 68 26 1 43-12 49-29l28 8c-11 28-37 45-77 45C44 4 14-33 15-96c1-61 26-98 85-98zm52 81c6-60-76-77-97-28-3 7-6 17-6 28h103" id="az"/><g id="l"><use transform="matrix(0.05,0,0,0.05,0,0)" xlink:href="#aw"/><use transform="matrix(0.05,0,0,0.05,10,0)" xlink:href="#ax"/><use transform="matrix(0.05,0,0,0.05,20,0)" xlink:href="#ay"/><use transform="matrix(0.05,0,0,0.05,34.95,0)" xlink:href="#az"/></g><path d="M24-231v-30h32v30H24zM24 0v-190h32V0H24" id="aA"/><path d="M24 0v-261h32V0H24" id="aB"/><g id="m"><use transform="matrix(0.05,0,0,0.05,0,0)" xlink:href="#az"/><use transform="matrix(0.05,0,0,0.05,10,0)" xlink:href="#ay"/><use transform="matrix(0.05,0,0,0.05,24.950000000000003,0)" xlink:href="#ax"/><use transform="matrix(0.05,0,0,0.05,34.95,0)" xlink:href="#aA"/><use transform="matrix(0.05,0,0,0.05,38.900000000000006,0)" xlink:href="#aB"/></g><path d="M115-194c55 1 70 41 70 98S169 2 115 4C84 4 66-9 55-30l1 105H24l-1-265h31l2 30c10-21 28-34 59-34zm-8 174c40 0 45-34 45-75s-6-73-45-74c-42 0-51 32-51 76 0 43 10 73 51 73" id="aC"/><path d="M135-143c-3-34-86-38-87 0 15 53 115 12 119 90S17 21 10-45l28-5c4 36 97 45 98 0-10-56-113-15-118-90-4-57 82-63 122-42 12 7 21 19 24 35" id="aD"/><path d="M206 0h-36l-40-164L89 0H53L-1-190h32L70-26l43-164h34l41 164 42-164h31" id="aE"/><path d="M100-194c62-1 85 37 85 99 1 63-27 99-86 99S16-35 15-95c0-66 28-99 85-99zM99-20c44 1 53-31 53-75 0-43-8-75-51-75s-53 32-53 75 10 74 51 75" id="aF"/><path d="M114-163C36-179 61-72 57 0H25l-1-190h30c1 12-1 29 2 39 6-27 23-49 58-41v29" id="aG"/><path d="M85-194c31 0 48 13 60 33l-1-100h32l1 261h-30c-2-10 0-23-3-31C134-8 116 4 85 4 32 4 16-35 15-94c0-66 23-100 70-100zm9 24c-40 0-46 34-46 75 0 40 6 74 45 74 42 0 51-32 51-76 0-42-9-74-50-73" id="aH"/><g id="n"><use transform="matrix(0.05,0,0,0.05,0,0)" xlink:href="#aC"/><use transform="matrix(0.05,0,0,0.05,10,0)" xlink:href="#ax"/><use transform="matrix(0.05,0,0,0.05,20,0)" xlink:href="#aD"/><use transform="matrix(0.05,0,0,0.05,29,0)" xlink:href="#aD"/><use transform="matrix(0.05,0,0,0.05,38,0)" xlink:href="#aE"/><use transform="matrix(0.05,0,0,0.05,50.95,0)" xlink:href="#aF"/><use transform="matrix(0.05,0,0,0.05,60.95,0)" xlink:href="#aG"/><use transform="matrix(0.05,0,0,0.05,66.9,0)" xlink:href="#aH"/></g><path d="M110-194c64 0 96 36 96 99 0 64-35 99-97 99-61 0-95-36-95-99 0-62 34-99 96-99zm-1 164c35 0 45-28 45-65 0-40-10-65-43-65-34 0-45 26-45 65 0 36 10 65 43 65" id="aI"/><path d="M121-226c-27-7-43 5-38 36h38v33H83V0H34v-157H6v-33h28c-9-59 32-81 87-68v32" id="aJ"/><path d="M25-224v-37h50v37H25zM25 0v-190h50V0H25" id="aK"/><path d="M25 0v-261h50V0H25" id="aL"/><g id="o"><use transform="matrix(0.05,0,0,0.05,0,0)" xlink:href="#aq"/><use transform="matrix(0.05,0,0,0.05,12,0)" xlink:href="#ap"/><use transform="matrix(0.05,0,0,0.05,19,0)" xlink:href="#aI"/><use transform="matrix(0.05,0,0,0.05,29.950000000000003,0)" xlink:href="#aJ"/><use transform="matrix(0.05,0,0,0.05,35.900000000000006,0)" xlink:href="#aK"/><use transform="matrix(0.05,0,0,0.05,40.900000000000006,0)" xlink:href="#aL"/><use transform="matrix(0.05,0,0,0.05,45.900000000000006,0)" xlink:href="#ao"/><use transform="matrix(0.05,0,0,0.05,55.900000000000006,0)" xlink:href="#an"/></g><path d="M135-194c53 0 70 44 70 98 0 56-19 98-73 100-31 1-45-17-59-34 3 33 2 69 2 105H25l-1-265h48c2 10 0 23 3 31 11-24 29-35 60-35zM114-30c33 0 39-31 40-66 0-38-9-64-40-64-56 0-55 130 0 130" id="aM"/><g id="p"><use transform="matrix(0.05,0,0,0.05,0,0)" xlink:href="#aM"/><use transform="matrix(0.05,0,0,0.05,10.950000000000001,0)" xlink:href="#ap"/><use transform="matrix(0.05,0,0,0.05,17.950000000000003,0)" xlink:href="#aI"/><use transform="matrix(0.05,0,0,0.05,28.900000000000006,0)" xlink:href="#aJ"/><use transform="matrix(0.05,0,0,0.05,34.85000000000001,0)" xlink:href="#aK"/><use transform="matrix(0.05,0,0,0.05,39.85000000000001,0)" xlink:href="#aL"/><use transform="matrix(0.05,0,0,0.05,44.85000000000001,0)" xlink:href="#ao"/><use transform="matrix(0.05,0,0,0.05,54.85,0)" xlink:href="#au"/><use transform="matrix(0.05,0,0,0.05,64.85000000000001,0)" xlink:href="#at"/><use transform="matrix(0.05,0,0,0.05,69.85000000000001,0)" xlink:href="#av"/></g><path d="M101-234c-31-9-42 10-38 44h38v23H63V0H32v-167H5v-23h27c-7-52 17-82 69-68v24" id="aN"/><path d="M-5 72V49h209v23H-5" id="aO"/><g id="q"><use transform="matrix(0.05,0,0,0.05,0,0)" xlink:href="#aC"/><use transform="matrix(0.05,0,0,0.05,10,0)" xlink:href="#aG"/><use transform="matrix(0.05,0,0,0.05,15.949999999999998,0)" xlink:href="#aF"/><use transform="matrix(0.05,0,0,0.05,25.950000000000003,0)" xlink:href="#aN"/><use transform="matrix(0.05,0,0,0.05,30.950000000000003,0)" xlink:href="#aA"/><use transform="matrix(0.05,0,0,0.05,34.9,0)" xlink:href="#aB"/><use transform="matrix(0.05,0,0,0.05,38.85,0)" xlink:href="#az"/><use transform="matrix(0.05,0,0,0.05,48.85,0)" xlink:href="#aO"/><use transform="matrix(0.05,0,0,0.05,58.85,0)" xlink:href="#aw"/><use transform="matrix(0.05,0,0,0.05,68.85,0)" xlink:href="#ax"/><use transform="matrix(0.05,0,0,0.05,78.85,0)" xlink:href="#ay"/><use transform="matrix(0.05,0,0,0.05,93.8,0)" xlink:href="#az"/></g><path d="M59-47c-2 24 18 29 38 22v24C64 9 27 4 27-40v-127H5v-23h24l9-43h21v43h35v23H59v120" id="aP"/><path d="M179-190L93 31C79 59 56 82 12 73V49c39 6 53-20 64-50L1-190h34L92-34l54-156h33" id="aQ"/><g id="r"><use transform="matrix(0.05,0,0,0.05,0,0)" xlink:href="#aC"/><use transform="matrix(0.05,0,0,0.05,10,0)" xlink:href="#aG"/><use transform="matrix(0.05,0,0,0.05,15.949999999999998,0)" xlink:href="#aF"/><use transform="matrix(0.05,0,0,0.05,25.950000000000003,0)" xlink:href="#aN"/><use transform="matrix(0.05,0,0,0.05,30.950000000000003,0)" xlink:href="#aA"/><use transform="matrix(0.05,0,0,0.05,34.9,0)" xlink:href="#aB"/><use transform="matrix(0.05,0,0,0.05,38.85,0)" xlink:href="#az"/><use transform="matrix(0.05,0,0,0.05,48.85,0)" xlink:href="#aO"/><use transform="matrix(0.05,0,0,0.05,58.85,0)" xlink:href="#aP"/><use transform="matrix(0.05,0,0,0.05,63.85,0)" xlink:href="#aQ"/><use transform="matrix(0.05,0,0,0.05,72.85,0)" xlink:href="#aC"/><use transform="matrix(0.05,0,0,0.05,82.85,0)" xlink:href="#az"/></g><path d="M76-208v77h127v40H76V0H24v-248h183v40H76" id="aR"/><g id="s"><use transform="matrix(0.05,0,0,0.05,0,0)" xlink:href="#aR"/><use transform="matrix(0.05,0,0,0.05,10.950000000000001,0)" xlink:href="#ar"/></g><g id="t"><use transform="matrix(0.05,0,0,0.05,0,0)" xlink:href="#as"/><use transform="matrix(0.05,0,0,0.05,10.950000000000001,0)" xlink:href="#an"/><use transform="matrix(0.05,0,0,0.05,20.950000000000003,0)" xlink:href="#ao"/><use transform="matrix(0.05,0,0,0.05,30.950000000000003,0)" xlink:href="#ap"/><use transform="matrix(0.05,0,0,0.05,37.95,0)" xlink:href="#au"/><use transform="matrix(0.05,0,0,0.05,47.95,0)" xlink:href="#at"/><use transform="matrix(0.05,0,0,0.05,52.95,0)" xlink:href="#av"/></g><path d="M147 0H94L2-248h55l64 206c17-72 42-137 63-206h54" id="aS"/><path d="M88-194c31-1 46 15 58 34l-1-101h50l1 261h-48c-2-10 0-23-3-31C134-8 116 4 84 4 32 4 16-41 15-95c0-56 19-97 73-99zm17 164c33 0 40-30 41-66 1-37-9-64-41-64s-38 30-39 65c0 43 13 65 39 65" id="aT"/><g id="u"><use transform="matrix(0.05,0,0,0.05,0,0)" xlink:href="#aS"/><use transform="matrix(0.05,0,0,0.05,11.65,0)" xlink:href="#aK"/><use transform="matrix(0.05,0,0,0.05,16.65,0)" xlink:href="#aT"/><use transform="matrix(0.05,0,0,0.05,27.6,0)" xlink:href="#ao"/><use transform="matrix(0.05,0,0,0.05,37.6,0)" xlink:href="#aI"/><use transform="matrix(0.05,0,0,0.05,48.550000000000004,0)" xlink:href="#an"/></g><path d="M128 0H69L1-190h53L99-40l48-150h52" id="aU"/><g id="v"><use transform="matrix(0.05,0,0,0.05,0,0)" xlink:href="#aU"/><use transform="matrix(0.05,0,0,0.05,10,0)" xlink:href="#aK"/><use transform="matrix(0.05,0,0,0.05,15,0)" xlink:href="#aT"/><use transform="matrix(0.05,0,0,0.05,25.950000000000003,0)" xlink:href="#ao"/><use transform="matrix(0.05,0,0,0.05,35.95,0)" xlink:href="#aI"/><use transform="matrix(0.05,0,0,0.05,46.900000000000006,0)" xlink:href="#au"/><use transform="matrix(0.05,0,0,0.05,56.900000000000006,0)" xlink:href="#at"/><use transform="matrix(0.05,0,0,0.05,61.900000000000006,0)" xlink:href="#av"/></g><g id="w"><use transform="matrix(0.05,0,0,0.05,0,0)" xlink:href="#aP"/><use transform="matrix(0.05,0,0,0.05,5,0)" xlink:href="#aA"/><use transform="matrix(0.05,0,0,0.05,8.95,0)" xlink:href="#aP"/><use transform="matrix(0.05,0,0,0.05,13.949999999999998,0)" xlink:href="#aB"/><use transform="matrix(0.05,0,0,0.05,17.9,0)" xlink:href="#az"/></g><path d="M96-169c-40 0-48 33-48 73s9 75 48 75c24 0 41-14 43-38l32 2c-6 37-31 61-74 61-59 0-76-41-82-99-10-93 101-131 147-64 4 7 5 14 7 22l-32 3c-4-21-16-35-41-35" id="aV"/><g id="x"><use transform="matrix(0.05,0,0,0.05,0,0)" xlink:href="#aH"/><use transform="matrix(0.05,0,0,0.05,10,0)" xlink:href="#az"/><use transform="matrix(0.05,0,0,0.05,20,0)" xlink:href="#aD"/><use transform="matrix(0.05,0,0,0.05,29,0)" xlink:href="#aV"/><use transform="matrix(0.05,0,0,0.05,38,0)" xlink:href="#aG"/><use transform="matrix(0.05,0,0,0.05,43.95,0)" xlink:href="#aA"/><use transform="matrix(0.05,0,0,0.05,47.900000000000006,0)" xlink:href="#aA"/><use transform="matrix(0.05,0,0,0.05,51.85,0)" xlink:href="#aC"/><use transform="matrix(0.05,0,0,0.05,61.85,0)" xlink:href="#aP"/><use transform="matrix(0.05,0,0,0.05,66.85000000000001,0)" xlink:href="#aA"/><use transform="matrix(0.05,0,0,0.05,70.80000000000001,0)" xlink:href="#aF"/><use transform="matrix(0.05,0,0,0.05,80.80000000000001,0)" xlink:href="#aw"/></g><path d="M353-270c-23-87-46-181-68-270h-4c-20 91-43 184-67 270h139zm30 115H184L144 0H-6l204-652h177L579 0H423" id="aW"/><path d="M281 12C124 12 36-88 36-248c0-163 99-254 258-260 63-3 113 24 145 57l-67 91c-82-73-185 1-185 112 0 77 41 140 111 141 38 0 66-19 89-36l59 93c-39 37-98 62-165 62" id="aX"/><path d="M256 12C136 11 86-60 85-180v-201H17v-109l76-6 17-132h122v132h119v115H232v199c-8 71 56 94 111 69L366-6c-31 9-67 19-110 18" id="aY"/><path d="M278 12C125 12 36-90 36-248s89-260 242-260c152 0 241 102 241 260S430 12 278 12zm0-401c-69 0-91 65-91 141s22 141 91 141c68 0 91-66 91-141s-23-141-91-141" id="aZ"/><path d="M375-371c-80-25-141 14-163 83V0H65v-496h120l10 87h4c33-69 107-120 200-89" id="ba"/><path d="M415-148C416-3 245 40 110-7 76-20 46-36 21-57l66-92c39 28 72 46 128 52 64 7 83-58 31-81-84-38-196-56-200-175-4-140 166-184 290-135 29 12 54 27 75 43l-66 88c-30-22-61-38-105-42-63-5-71 55-26 75 86 37 200 53 201 176" id="bb"/><g id="y"><use transform="matrix(0.01911111111111111,0,0,0.01911111111111111,0,0)" xlink:href="#aW"/><use transform="matrix(0.01911111111111111,0,0,0.01911111111111111,10.950666666666667,0)" xlink:href="#aX"/><use transform="matrix(0.01911111111111111,0,0,0.01911111111111111,19.875555555555557,0)" xlink:href="#aY"/><use transform="matrix(0.01911111111111111,0,0,0.01911111111111111,27.003999999999998,0)" xlink:href="#aZ"/><use transform="matrix(0.01911111111111111,0,0,0.01911111111111111,37.61066666666666,0)" xlink:href="#ba"/><use transform="matrix(0.01911111111111111,0,0,0.01911111111111111,45.02577777777777,0)" xlink:href="#bb"/></g><path d="M133-34C117-15 103 5 69 4 32 3 11-16 11-54c-1-60 55-63 116-61 1-26-3-47-28-47-18 1-26 9-28 27l-52-2c7-38 36-58 82-57s74 22 75 68l1 82c-1 14 12 18 25 15v27c-30 8-71 5-69-32zm-48 3c29 0 43-24 42-57-32 0-66-3-65 30 0 17 8 27 23 27" id="bc"/><path d="M190-63c-7 42-38 67-86 67-59 0-84-38-90-98-12-110 154-137 174-36l-49 2c-2-19-15-32-35-32-30 0-35 28-38 64-6 74 65 87 74 30" id="bd"/><path d="M115-3C79 11 28 4 28-45v-112H4v-33h27l15-45h31v45h36v33H77v99c-1 23 16 31 38 25v30" id="be"/><g id="z"><use transform="matrix(0.05,0,0,0.05,0,0)" xlink:href="#bc"/><use transform="matrix(0.05,0,0,0.05,10,0)" xlink:href="#bd"/><use transform="matrix(0.05,0,0,0.05,20,0)" xlink:href="#be"/><use transform="matrix(0.05,0,0,0.05,25.950000000000003,0)" xlink:href="#aI"/><use transform="matrix(0.05,0,0,0.05,36.9,0)" xlink:href="#ap"/><use transform="matrix(0.05,0,0,0.05,43.9,0)" xlink:href="#au"/><use transform="matrix(0.05,0,0,0.05,53.900000000000006,0)" xlink:href="#at"/><use transform="matrix(0.05,0,0,0.05,58.900000000000006,0)" xlink:href="#av"/></g><path d="M67-125c0 53 21 87 73 88 37 1 54-22 65-47l45 17C233-25 199 4 140 4 58 4 20-42 15-125 8-235 124-281 211-232c18 10 29 29 36 50l-46 12c-8-25-30-41-62-41-52 0-71 34-72 86" id="bf"/><g id="A"><use transform="matrix(0.05,0,0,0.05,0,0)" xlink:href="#bf"/><use transform="matrix(0.05,0,0,0.05,12.950000000000001,0)" xlink:href="#bc"/><use transform="matrix(0.05,0,0,0.05,22.950000000000003,0)" xlink:href="#an"/><use transform="matrix(0.05,0,0,0.05,32.95,0)" xlink:href="#be"/></g><g id="B"><use transform="matrix(0.05,0,0,0.05,0,0)" xlink:href="#aq"/><use transform="matrix(0.05,0,0,0.05,12,0)" xlink:href="#ar"/></g><path d="M4 7l51-268h42L46 7H4" id="bg"/><use transform="matrix(0.05,0,0,0.05,0,0)" xlink:href="#bg" id="C"/><g id="D"><use transform="matrix(0.05,0,0,0.05,0,0)" xlink:href="#aR"/><use transform="matrix(0.05,0,0,0.05,10.950000000000001,0)" xlink:href="#ar"/></g><path fill="#3a414a" d="M24-248c120-7 223 5 221 122C244-46 201 0 124 0H24v-248zM76-40c74 7 117-18 117-86 0-67-45-88-117-82v168" id="bh"/><path fill="#3a414a" d="M85 4C-2 5 27-109 22-190h50c7 57-23 150 33 157 60-5 35-97 40-157h50l1 190h-47c-2-12 1-28-3-38-12 25-28 42-61 42" id="bi"/><path fill="#3a414a" d="M135-150c-39-12-60 13-60 57V0H25l-1-190h47c2 13-1 29 3 40 6-28 27-53 61-41v41" id="bj"/><path fill="#3a414a" d="M133-34C117-15 103 5 69 4 32 3 11-16 11-54c-1-60 55-63 116-61 1-26-3-47-28-47-18 1-26 9-28 27l-52-2c7-38 36-58 82-57s74 22 75 68l1 82c-1 14 12 18 25 15v27c-30 8-71 5-69-32zm-48 3c29 0 43-24 42-57-32 0-66-3-65 30 0 17 8 27 23 27" id="bk"/><path fill="#3a414a" d="M115-3C79 11 28 4 28-45v-112H4v-33h27l15-45h31v45h36v33H77v99c-1 23 16 31 38 25v30" id="bl"/><path fill="#3a414a" d="M25-224v-37h50v37H25zM25 0v-190h50V0H25" id="bm"/><path fill="#3a414a" d="M110-194c64 0 96 36 96 99 0 64-35 99-97 99-61 0-95-36-95-99 0-62 34-99 96-99zm-1 164c35 0 45-28 45-65 0-40-10-65-43-65-34 0-45 26-45 65 0 36 10 65 43 65" id="bn"/><path fill="#3a414a" d="M135-194c87-1 58 113 63 194h-50c-7-57 23-157-34-157-59 0-34 97-39 157H25l-1-190h47c2 12-1 28 3 38 12-26 28-41 61-42" id="bo"/><path fill="#3a414a" d="M137-138c1-29-70-34-71-4 15 46 118 7 119 86 1 83-164 76-172 9l43-7c4 19 20 25 44 25 33 8 57-30 24-41C81-84 22-81 20-136c-2-80 154-74 161-7" id="bp"/><g id="E"><use transform="matrix(0.05,0,0,0.05,0,0)" xlink:href="#bh"/><use transform="matrix(0.05,0,0,0.05,12.950000000000001,0)" xlink:href="#bi"/><use transform="matrix(0.05,0,0,0.05,23.900000000000002,0)" xlink:href="#bj"/><use transform="matrix(0.05,0,0,0.05,30.900000000000002,0)" xlink:href="#bk"/><use transform="matrix(0.05,0,0,0.05,40.900000000000006,0)" xlink:href="#bl"/><use transform="matrix(0.05,0,0,0.05,46.85000000000001,0)" xlink:href="#bm"/><use transform="matrix(0.05,0,0,0.05,51.85,0)" xlink:href="#bn"/><use transform="matrix(0.05,0,0,0.05,62.80000000000001,0)" xlink:href="#bo"/><use transform="matrix(0.05,0,0,0.05,73.75000000000001,0)" xlink:href="#bp"/></g><path fill="#3a414a" d="M24-248c93 1 206-16 204 79-1 75-69 88-152 82V0H24v-248zm52 121c47 0 100 7 100-41 0-47-54-39-100-39v80" id="bq"/><path fill="#3a414a" d="M195 0l-88-114-31 24V0H24v-248h52v113l112-113h60L142-143 257 0h-62" id="br"/><g id="F"><use transform="matrix(0.05,0,0,0.05,0,0)" xlink:href="#bq"/><use transform="matrix(0.05,0,0,0.05,12,0)" xlink:href="#br"/></g><path fill="#3a414a" d="M4 7l51-268h42L46 7H4" id="bs"/><use transform="matrix(0.05,0,0,0.05,0,0)" xlink:href="#bs" id="G"/><path fill="#3a414a" d="M76-208v77h127v40H76V0H24v-248h183v40H76" id="bt"/><g id="H"><use transform="matrix(0.05,0,0,0.05,0,0)" xlink:href="#bt"/><use transform="matrix(0.05,0,0,0.05,10.950000000000001,0)" xlink:href="#br"/></g><path fill="#3a414a" d="M135-194c53 0 70 44 70 98 0 56-19 98-73 100-31 1-45-17-59-34 3 33 2 69 2 105H25l-1-265h48c2 10 0 23 3 31 11-24 29-35 60-35zM114-30c33 0 39-31 40-66 0-38-9-64-40-64-56 0-55 130 0 130" id="bu"/><path fill="#3a414a" d="M121-226c-27-7-43 5-38 36h38v33H83V0H34v-157H6v-33h28c-9-59 32-81 87-68v32" id="bv"/><path fill="#3a414a" d="M25 0v-261h50V0H25" id="bw"/><path fill="#3a414a" d="M185-48c-13 30-37 53-82 52C43 2 14-33 14-96s30-98 90-98c62 0 83 45 84 108H66c0 31 8 55 39 56 18 0 30-7 34-22zm-45-69c5-46-57-63-70-21-2 6-4 13-4 21h74" id="bx"/><path fill="#3a414a" d="M-4 44V30h207v14H-4" id="by"/><path fill="#3a414a" d="M24 0v-248h52V0H24" id="bz"/><g id="I"><use transform="matrix(0.05,0,0,0.05,0,0)" xlink:href="#bu"/><use transform="matrix(0.05,0,0,0.05,10.950000000000001,0)" xlink:href="#bj"/><use transform="matrix(0.05,0,0,0.05,17.950000000000003,0)" xlink:href="#bn"/><use transform="matrix(0.05,0,0,0.05,28.900000000000006,0)" xlink:href="#bv"/><use transform="matrix(0.05,0,0,0.05,34.85000000000001,0)" xlink:href="#bm"/><use transform="matrix(0.05,0,0,0.05,39.85000000000001,0)" xlink:href="#bw"/><use transform="matrix(0.05,0,0,0.05,44.85000000000001,0)" xlink:href="#bx"/><use transform="matrix(0.05,0,0,0.05,54.85,0)" xlink:href="#by"/><use transform="matrix(0.05,0,0,0.05,64.85000000000001,0)" xlink:href="#bz"/><use transform="matrix(0.05,0,0,0.05,69.85000000000001,0)" xlink:href="#bh"/></g><path fill="#3a414a" d="M128 0H69L1-190h53L99-40l48-150h52" id="bA"/><path fill="#3a414a" d="M88-194c31-1 46 15 58 34l-1-101h50l1 261h-48c-2-10 0-23-3-31C134-8 116 4 84 4 32 4 16-41 15-95c0-56 19-97 73-99zm17 164c33 0 40-30 41-66 1-37-9-64-41-64s-38 30-39 65c0 43 13 65 39 65" id="bB"/><g id="J"><use transform="matrix(0.05,0,0,0.05,0,0)" xlink:href="#bA"/><use transform="matrix(0.05,0,0,0.05,10,0)" xlink:href="#bm"/><use transform="matrix(0.05,0,0,0.05,15,0)" xlink:href="#bB"/><use transform="matrix(0.05,0,0,0.05,25.950000000000003,0)" xlink:href="#bx"/><use transform="matrix(0.05,0,0,0.05,35.95,0)" xlink:href="#bn"/><use transform="matrix(0.05,0,0,0.05,46.900000000000006,0)" xlink:href="#by"/><use transform="matrix(0.05,0,0,0.05,56.900000000000006,0)" xlink:href="#bz"/><use transform="matrix(0.05,0,0,0.05,61.900000000000006,0)" xlink:href="#bh"/></g><path fill="#3a414a" d="M135-143c-3-34-86-38-87 0 15 53 115 12 119 90S17 21 10-45l28-5c4 36 97 45 98 0-10-56-113-15-118-90-4-57 82-63 122-42 12 7 21 19 24 35" id="bC"/><path fill="#3a414a" d="M59-47c-2 24 18 29 38 22v24C64 9 27 4 27-40v-127H5v-23h24l9-43h21v43h35v23H59v120" id="bD"/><path fill="#3a414a" d="M141-36C126-15 110 5 73 4 37 3 15-17 15-53c-1-64 63-63 125-63 3-35-9-54-41-54-24 1-41 7-42 31l-33-3c5-37 33-52 76-52 45 0 72 20 72 64v82c-1 20 7 32 28 27v20c-31 9-61-2-59-35zM48-53c0 20 12 33 32 33 41-3 63-29 60-74-43 2-92-5-92 41" id="bE"/><path fill="#3a414a" d="M84 4C-5 8 30-112 23-190h32v120c0 31 7 50 39 49 72-2 45-101 50-169h31l1 190h-30c-1-10 1-25-2-33-11 22-28 36-60 37" id="bF"/><g id="K"><use transform="matrix(0.05,0,0,0.05,0,0)" xlink:href="#bC"/><use transform="matrix(0.05,0,0,0.05,9,0)" xlink:href="#bD"/><use transform="matrix(0.05,0,0,0.05,14,0)" xlink:href="#bE"/><use transform="matrix(0.05,0,0,0.05,24,0)" xlink:href="#bD"/><use transform="matrix(0.05,0,0,0.05,29,0)" xlink:href="#bF"/><use transform="matrix(0.05,0,0,0.05,39,0)" xlink:href="#bC"/></g><path fill="#3a414a" d="M24 0v-261h32V0H24" id="bG"/><path fill="#3a414a" d="M-5 72V49h209v23H-5" id="bH"/><path fill="#515151" d="M235 12C135 12 96-49 96-150v-269H24v-62l76-5 10-136h69v136h131v67H179v270c1 58 17 94 75 94 19 0 41-7 55-13l16 62c-25 8-58 18-90 18" id="bI"/><path fill="#515151" d="M181-639c0 30-26 53-57 53s-57-23-57-53c0-31 26-53 57-53s57 22 57 53zM82-486h82V0H82v-486" id="bJ"/><path fill="#515151" d="M377-297c-1-82-18-130-91-130-37 0-77 25-122 75V0H82v-486h68l7 70h3c38-39 82-81 151-82 77 0 114 36 134 93 44-45 84-93 160-93 109 0 148 74 148 190V0h-82v-297c-1-81-18-130-90-130-37 0-77 25-122 75V0h-82v-297" id="bK"/><path fill="#515151" d="M279 12C129 6 46-87 46-242c0-148 77-256 218-256 148 0 205 117 191 273H127c4 97 64 171 162 171 51 0 87-18 121-38l29 54c-42 25-92 53-160 50zm107-291c7-109-70-183-170-143-53 21-83 73-90 143h260" id="bL"/><path fill="#515151" d="M374-191C441-40 261 57 110-7 79-20 51-36 28-55l41-55c40 31 77 52 143 58 87 8 128-92 60-134-81-50-214-50-220-174-7-157 230-170 318-83l-39 52c-30-22-63-38-111-43-80-8-120 85-56 122 69 40 177 47 210 121" id="bM"/><path fill="#515151" d="M201 12C118 12 58-40 58-126c0-53 24-94 72-122s123-49 227-60c-1-72-27-121-100-122-60-1-108 28-145 52l-33-57c46-28 114-63 191-63 121 0 168 82 169 200V0h-68c-4-19-2-42-9-58-42 33-92 70-161 70zm23-66c62-5 93-31 133-65v-135c-89 14-171 22-207 80-36 57 6 125 74 120" id="bN"/><path fill="#515151" d="M297 12c-57 0-97-28-135-56 3 81 2 165 2 249H82v-691h68l7 56h3c39-32 90-68 155-68 140 0 192 106 192 248 0 150-68 262-210 262zm-3-441c-58 0-90 33-130 66v255c34 29 69 51 119 51 100 0 139-86 139-193 0-101-29-179-128-179" id="bO"/><g id="L"><use transform="matrix(0.05,0,0,0.05,0,0)" xlink:href="#bG"/><use transform="matrix(0.05,0,0,0.05,3.95,0)" xlink:href="#bE"/><use transform="matrix(0.05,0,0,0.05,13.949999999999998,0)" xlink:href="#bC"/><use transform="matrix(0.05,0,0,0.05,22.95,0)" xlink:href="#bD"/><use transform="matrix(0.05,0,0,0.05,27.950000000000003,0)" xlink:href="#bH"/><use transform="matrix(0.021333333333333336,0,0,0.021333333333333336,37.95,0)" xlink:href="#bI"/><use transform="matrix(0.021333333333333336,0,0,0.021333333333333336,45.16066666666667,0)" xlink:href="#bJ"/><use transform="matrix(0.021333333333333336,0,0,0.021333333333333336,50.408666666666676,0)" xlink:href="#bK"/><use transform="matrix(0.021333333333333336,0,0,0.021333333333333336,68.09400000000001,0)" xlink:href="#bL"/><use transform="matrix(0.021333333333333336,0,0,0.021333333333333336,78.67533333333334,0)" xlink:href="#bM"/><use transform="matrix(0.021333333333333336,0,0,0.021333333333333336,87.614,0)" xlink:href="#bI"/><use transform="matrix(0.021333333333333336,0,0,0.021333333333333336,94.44066666666667,0)" xlink:href="#bN"/><use transform="matrix(0.021333333333333336,0,0,0.021333333333333336,105.36333333333334,0)" xlink:href="#bK"/><use transform="matrix(0.021333333333333336,0,0,0.021333333333333336,123.04866666666668,0)" xlink:href="#bO"/></g></defs></g></svg>