<svg xmlns="http://www.w3.org/2000/svg" xmlns:xlink="http://www.w3.org/1999/xlink" xmlns:lucid="lucid" width="2514" height="1638"><g transform="translate(836 -7)" lucid:page-tab-id="0_0"><path d="M-1806.87 0h3677.74v2581.67h-3677.74z" fill="#fff"/><path d="M204.2 160.56a6 6 0 0 1 6-6h472.1a6 6 0 0 1 6 6v287a6 6 0 0 1-6 6H210.2a6 6 0 0 1-6-6z" fill="#fff"/><path d="M204.2 160.56a6 6 0 0 1 6-6h472.1a6 6 0 0 1 6 6v287a6 6 0 0 1-6 6H210.2a6 6 0 0 1-6-6zM204.2 194.56h484.1M264.2 194.56v259M498.96 194.56v259" stroke="#3a414a" fill="none"/><use xlink:href="#a" transform="matrix(1,0,0,1,214.1921106598379,154.55654133025791) translate(185.12345679012344 24.444444444444443)"/><use xlink:href="#b" transform="matrix(1,0,0,1,209.1921106598379,197.05654133025791) translate(9.598765432098766 20.444444444444443)"/><use xlink:href="#c" transform="matrix(1,0,0,1,269.1921106598379,197.05654133025791) translate(0 20.444444444444443)"/><use xlink:href="#d" transform="matrix(1,0,0,1,503.96341362057206,197.05654133025791) translate(0 20.444444444444443)"/><use xlink:href="#e" transform="matrix(1,0,0,1,269.1921106598379,234.05654133025791) translate(0 20.444444444444443)"/><use xlink:href="#f" transform="matrix(1,0,0,1,503.96341362057206,234.05654133025791) translate(0 20.444444444444443)"/><use xlink:href="#g" transform="matrix(1,0,0,1,209.1921106598379,271.0565413302579) translate(10.246913580246915 20.444444444444443)"/><use xlink:href="#h" transform="matrix(1,0,0,1,269.1921106598379,271.0565413302579) translate(0 20.444444444444443)"/><use xlink:href="#d" transform="matrix(1,0,0,1,503.96341362057206,271.0565413302579) translate(0 20.444444444444443)"/><use xlink:href="#i" transform="matrix(1,0,0,1,269.1921106598379,308.0565413302579) translate(0 20.444444444444443)"/><use xlink:href="#j" transform="matrix(1,0,0,1,503.96341362057206,308.0565413302579) translate(0 20.444444444444443)"/><use xlink:href="#k" transform="matrix(1,0,0,1,269.1921106598379,345.0565413302579) translate(0 20.444444444444443)"/><use xlink:href="#l" transform="matrix(1,0,0,1,503.96341362057206,345.0565413302579) translate(0 20.444444444444443)"/><use xlink:href="#m" transform="matrix(1,0,0,1,209.1921106598379,382.0565413302579) translate(25 20.444444444444443)"/><use xlink:href="#n" transform="matrix(1,0,0,1,269.1921106598379,382.0565413302579) translate(0 20.444444444444443)"/><use xlink:href="#o" transform="matrix(1,0,0,1,503.96341362057206,382.0565413302579) translate(0 20.444444444444443)"/><use xlink:href="#p" transform="matrix(1,0,0,1,269.1921106598379,419.0565413302579) translate(0 20.444444444444443)"/><use xlink:href="#o" transform="matrix(1,0,0,1,503.96341362057206,419.0565413302579) translate(0 20.444444444444443)"/><path d="M918.78 646a6 6 0 0 1 6-6h473.33a6 6 0 0 1 6 6v139a6 6 0 0 1-6 6H924.8a6 6 0 0 1-6-6z" fill="#fff"/><path d="M918.78 646a6 6 0 0 1 6-6h473.33a6 6 0 0 1 6 6v139a6 6 0 0 1-6 6H924.8a6 6 0 0 1-6-6zM918.78 680h485.33M978.78 680v111M1214.77 680v111" stroke="#3a414a" fill="none"/><use xlink:href="#q" transform="matrix(1,0,0,1,928.7770236034999,639.9969017988544) translate(189.8827160493827 24.444444444444443)"/><use xlink:href="#b" transform="matrix(1,0,0,1,923.7770236034999,682.4969017988544) translate(9.598765432098766 20.444444444444443)"/><use xlink:href="#h" transform="matrix(1,0,0,1,983.7770236034999,682.4969017988544) translate(0 20.444444444444443)"/><use xlink:href="#d" transform="matrix(1,0,0,1,1219.7713029607341,682.4969017988544) translate(0 20.444444444444443)"/><use xlink:href="#r" transform="matrix(1,0,0,1,983.7770236034999,719.4969017988544) translate(0 20.444444444444443)"/><use xlink:href="#f" transform="matrix(1,0,0,1,1219.7713029607341,719.4969017988544) translate(0 20.444444444444443)"/><use xlink:href="#s" transform="matrix(1,0,0,1,983.7770236034999,756.4969017988544) translate(0 20.444444444444443)"/><use xlink:href="#t" transform="matrix(1,0,0,1,1219.7713029607341,756.4969017988544) translate(0 20.444444444444443)"/><path d="M204.2 612.2a6 6 0 0 1 6-6h472.1a6 6 0 0 1 6 6v324a6 6 0 0 1-6 6H210.2a6 6 0 0 1-6-6z" fill="#fff"/><path d="M204.2 612.2a6 6 0 0 1 6-6h472.1a6 6 0 0 1 6 6v324a6 6 0 0 1-6 6H210.2a6 6 0 0 1-6-6zM204.2 646.2h484.1M264.2 646.2v296M498.96 646.2v296" stroke="#3a414a" fill="none"/><use xlink:href="#u" transform="matrix(1,0,0,1,214.19211065983797,606.1910432218058) translate(190.55555555555554 24.444444444444443)"/><use xlink:href="#b" transform="matrix(1,0,0,1,209.19211065983797,648.6910432218058) translate(9.598765432098766 20.444444444444443)"/><use xlink:href="#v" transform="matrix(1,0,0,1,269.19211065983797,648.6910432218058) translate(0 20.444444444444443)"/><use xlink:href="#d" transform="matrix(1,0,0,1,503.963413620572,648.6910432218058) translate(0 20.444444444444443)"/><use xlink:href="#w" transform="matrix(1,0,0,1,269.19211065983797,685.6910432218058) translate(0 20.444444444444443)"/><use xlink:href="#f" transform="matrix(1,0,0,1,503.963413620572,685.6910432218058) translate(0 20.444444444444443)"/><use xlink:href="#g" transform="matrix(1,0,0,1,209.19211065983797,722.6910432218058) translate(10.246913580246915 20.444444444444443)"/><use xlink:href="#h" transform="matrix(1,0,0,1,269.19211065983797,722.6910432218058) translate(0 20.444444444444443)"/><use xlink:href="#d" transform="matrix(1,0,0,1,503.963413620572,722.6910432218058) translate(0 20.444444444444443)"/><use xlink:href="#g" transform="matrix(1,0,0,1,209.19211065983797,759.6910432218058) translate(10.246913580246915 20.444444444444443)"/><use xlink:href="#x" transform="matrix(1,0,0,1,269.19211065983797,759.6910432218058) translate(0 20.444444444444443)"/><use xlink:href="#d" transform="matrix(1,0,0,1,503.963413620572,759.6910432218058) translate(0 20.444444444444443)"/><use xlink:href="#y" transform="matrix(1,0,0,1,269.19211065983797,796.6910432218058) translate(0 20.444444444444443)"/><use xlink:href="#f" transform="matrix(1,0,0,1,503.963413620572,796.6910432218058) translate(0 20.444444444444443)"/><use xlink:href="#m" transform="matrix(1,0,0,1,209.19211065983797,833.6910432218058) translate(25 20.444444444444443)"/><use xlink:href="#z" transform="matrix(1,0,0,1,269.19211065983797,833.6910432218058) translate(0 20.444444444444443)"/><use xlink:href="#A" transform="matrix(1,0,0,1,503.963413620572,833.6910432218058) translate(0 20.444444444444443)"/><use xlink:href="#B" transform="matrix(1,0,0,1,269.19211065983797,870.6910432218058) translate(0 20.444444444444443)"/><use xlink:href="#A" transform="matrix(1,0,0,1,503.963413620572,870.6910432218058) translate(0 20.444444444444443)"/><use xlink:href="#C" transform="matrix(1,0,0,1,269.19211065983797,907.6910432218058) translate(0 20.444444444444443)"/><use xlink:href="#D" transform="matrix(1,0,0,1,503.963413620572,907.6910432218058) translate(0 20.444444444444443)"/><path d="M708.2 287.06h89.34a6 6 0 0 1 6 6V692.5a6 6 0 0 0 6 6h88.74" stroke="#3a414a" fill="none"/><path d="M689.02 277.06l20 10-20 10" stroke="#3a414a" fill="#fff" fill-opacity="0"/><path d="M689.02 287.06h20M908.28 688.5v20M918.28 698.5h-20M898.28 688.5v20" stroke="#3a414a" fill="#fff"/><path d="M708.2 738.7h89.34a6 6 0 0 0 6-6v-28.2a6 6 0 0 1 6-6h108.24" stroke="#3a414a" fill="none"/><path d="M689.02 728.7l20 10-20 10" stroke="#3a414a" fill="#fff" fill-opacity="0"/><path d="M689.02 738.7h20" stroke="#3a414a" fill="#fff"/><path d="M918.28 699h-.52v-1h.52z" stroke="#3a414a" stroke-width=".05" fill="#3a414a"/><path d="M190 1126a6 6 0 0 1 6-6h472.1a6 6 0 0 1 6 6v102a6 6 0 0 1-6 6H196a6 6 0 0 1-6-6z" fill="#fff"/><path d="M190 1126a6 6 0 0 1 6-6h472.1a6 6 0 0 1 6 6v102a6 6 0 0 1-6 6H196a6 6 0 0 1-6-6zM190 1160h484.1M250 1160v74M484.77 1160v74" stroke="#3a414a" fill="none"/><use xlink:href="#E" transform="matrix(1,0,0,1,200.00000000000003,1120) translate(174.62962962962962 24.444444444444443)"/><use xlink:href="#b" transform="matrix(1,0,0,1,195.00000000000003,1162.5) translate(9.598765432098766 20.444444444444443)"/><use xlink:href="#F" transform="matrix(1,0,0,1,255.00000000000003,1162.5) translate(0 20.444444444444443)"/><use xlink:href="#d" transform="matrix(1,0,0,1,489.77130296073415,1162.5) translate(0 20.444444444444443)"/><use xlink:href="#G" transform="matrix(1,0,0,1,255.00000000000003,1199.5) translate(0 20.444444444444443)"/><use xlink:href="#f" transform="matrix(1,0,0,1,489.77130296073415,1199.5) translate(0 20.444444444444443)"/><path d="M169.5 1178.5H156a6 6 0 0 1-6-6V781.7a6 6 0 0 1 6-6h28.28" stroke="#3a414a" fill="none"/><path d="M169.5 1168.5v20M189.5 1178.5h-20" stroke="#3a414a" fill="#fff"/><path d="M203.47 785.7l-20-10 20-10" stroke="#3a414a" fill="#fff" fill-opacity="0"/><path d="M203.47 775.7h-20" stroke="#3a414a" fill="#fff"/><path d="M920 886a6 6 0 0 1 6-6h472.1a6 6 0 0 1 6 6v102a6 6 0 0 1-6 6H926a6 6 0 0 1-6-6z" fill="#fff"/><path d="M920 886a6 6 0 0 1 6-6h472.1a6 6 0 0 1 6 6v102a6 6 0 0 1-6 6H926a6 6 0 0 1-6-6zM920 920h484.1M1041.33 920v74M1241.44 920v74" stroke="#3a414a" fill="none"/><use xlink:href="#H" transform="matrix(1,0,0,1,930,880) translate(134.59876543209876 24.444444444444443)"/><use xlink:href="#I" transform="matrix(1,0,0,1,930,880) translate(202.3148148148148 24.444444444444443)"/><use xlink:href="#J" transform="matrix(1,0,0,1,930,880) translate(214.6604938271605 24.444444444444443)"/><use xlink:href="#K" transform="matrix(1,0,0,1,925,922.5) translate(22.75925925925926 20.444444444444443)"/><use xlink:href="#F" transform="matrix(1,0,0,1,1046.3333333333335,922.5) translate(0 20.444444444444443)"/><use xlink:href="#d" transform="matrix(1,0,0,1,1246.4379696274007,922.5) translate(0 20.444444444444443)"/><use xlink:href="#K" transform="matrix(1,0,0,1,925,959.5) translate(22.75925925925926 20.444444444444443)"/><use xlink:href="#h" transform="matrix(1,0,0,1,1046.3333333333335,959.5) translate(0 20.444444444444443)"/><use xlink:href="#d" transform="matrix(1,0,0,1,1246.4379696274007,959.5) translate(0 20.444444444444443)"/><path d="M1424.6 698.46h39.4a6 6 0 0 1 6 6V969.5a6 6 0 0 1-6 6h-39.98" stroke="#3a414a" fill="none"/><path d="M1424.6 708.46v-20M1404.6 698.46h20" stroke="#3a414a" fill="#fff"/><path d="M1404.83 965.5l20 10-20 10" stroke="#3a414a" fill="#fff" fill-opacity="0"/><path d="M1404.83 975.5h20" stroke="#3a414a" fill="#fff"/><path d="M694.6 1178.5h96.45a6 6 0 0 0 6-6v-228a6 6 0 0 1 6-6h97.04" stroke="#3a414a" fill="none"/><path d="M694.6 1188.5v-20M674.6 1178.5h20" stroke="#3a414a" fill="#fff"/><path d="M919.28 948.5l-20-10 20-10" stroke="#3a414a" fill="#fff" fill-opacity="0"/><path d="M919.28 938.5h-20" stroke="#3a414a" fill="#fff"/><path d="M900 160.37a6 6 0 0 1 6-6h472.1a6 6 0 0 1 6 6v102a6 6 0 0 1-6 6H906a6 6 0 0 1-6-6z" fill="#fff"/><path d="M900 160.37a6 6 0 0 1 6-6h472.1a6 6 0 0 1 6 6v102a6 6 0 0 1-6 6H906a6 6 0 0 1-6-6zM900 194.37h484.1M1021.33 194.37v74M1221.44 194.37v74" stroke="#3a414a" fill="none"/><use xlink:href="#H" transform="matrix(1,0,0,1,910,154.36859629315583) translate(145.09259259259258 24.444444444444443)"/><use xlink:href="#I" transform="matrix(1,0,0,1,910,154.36859629315583) translate(212.80864197530863 24.444444444444443)"/><use xlink:href="#L" transform="matrix(1,0,0,1,910,154.36859629315583) translate(225.15432098765433 24.444444444444443)"/><use xlink:href="#K" transform="matrix(1,0,0,1,905,196.86859629315583) translate(22.75925925925926 20.444444444444443)"/><use xlink:href="#c" transform="matrix(1,0,0,1,1026.3333333333335,196.86859629315583) translate(0 20.444444444444443)"/><use xlink:href="#d" transform="matrix(1,0,0,1,1226.4379696274007,196.86859629315583) translate(0 20.444444444444443)"/><use xlink:href="#K" transform="matrix(1,0,0,1,905,233.86859629315583) translate(22.75925925925926 20.444444444444443)"/><use xlink:href="#h" transform="matrix(1,0,0,1,1026.3333333333335,233.86859629315583) translate(0 20.444444444444443)"/><use xlink:href="#d" transform="matrix(1,0,0,1,1226.4379696274007,233.86859629315583) translate(0 20.444444444444443)"/><path d="M1404.02 249.87H1464a6 6 0 0 1 6 6v436.6a6 6 0 0 1-6 6h-58.9" stroke="#3a414a" fill="none"/><path d="M1384.83 239.87l20 10-20 10" stroke="#3a414a" fill="#fff" fill-opacity="0"/><path d="M1384.83 249.87h20" stroke="#3a414a" fill="#fff"/><path d="M1405.12 698.96h-.5v-1h.5z" stroke="#3a414a" stroke-width=".05" fill="#3a414a"/><path d="M708.8 212.87h171.3" stroke="#3a414a" fill="none"/><path d="M708.8 222.87v-20M688.8 212.87h20" stroke="#3a414a" fill="#fff"/><path d="M899.28 222.87l-20-10 20-10" stroke="#3a414a" fill="#fff" fill-opacity="0"/><path d="M899.28 212.87h-20" stroke="#3a414a" fill="#fff"/><path d="M200 1306a6 6 0 0 1 6-6h472.1a6 6 0 0 1 6 6v176a6 6 0 0 1-6 6H206a6 6 0 0 1-6-6z" fill="#fff"/><path d="M200 1306a6 6 0 0 1 6-6h472.1a6 6 0 0 1 6 6v176a6 6 0 0 1-6 6H206a6 6 0 0 1-6-6zM200 1340h484.1M323.13 1340v148M494.77 1340v148" stroke="#3a414a" fill="none"/><use xlink:href="#M" transform="matrix(1,0,0,1,210,1300) translate(125.30864197530863 24.444444444444443)"/><use xlink:href="#I" transform="matrix(1,0,0,1,210,1300) translate(232.59259259259258 24.444444444444443)"/><use xlink:href="#L" transform="matrix(1,0,0,1,210,1300) translate(244.93827160493828 24.444444444444443)"/><use xlink:href="#N" transform="matrix(1,0,0,1,205,1342.5) translate(17.586419753086417 20.444444444444443)"/><use xlink:href="#I" transform="matrix(1,0,0,1,205,1342.5) translate(54.56172839506173 20.444444444444443)"/><use xlink:href="#O" transform="matrix(1,0,0,1,205,1342.5) translate(66.9074074074074 20.444444444444443)"/><use xlink:href="#c" transform="matrix(1,0,0,1,328.1338582677172,1342.5) translate(0 20.444444444444443)"/><use xlink:href="#d" transform="matrix(1,0,0,1,499.77130296073415,1342.5) translate(0 20.444444444444443)"/><use xlink:href="#N" transform="matrix(1,0,0,1,205,1379.5) translate(17.586419753086417 20.444444444444443)"/><use xlink:href="#I" transform="matrix(1,0,0,1,205,1379.5) translate(54.56172839506173 20.444444444444443)"/><use xlink:href="#O" transform="matrix(1,0,0,1,205,1379.5) translate(66.9074074074074 20.444444444444443)"/><use xlink:href="#P" transform="matrix(1,0,0,1,328.1338582677172,1379.5) translate(0 20.444444444444443)"/><use xlink:href="#d" transform="matrix(1,0,0,1,499.77130296073415,1379.5) translate(0 20.444444444444443)"/><use xlink:href="#Q" transform="matrix(1,0,0,1,205,1416.5) translate(42.833333333333336 20.444444444444443)"/><use xlink:href="#R" transform="matrix(1,0,0,1,328.1338582677172,1416.5) translate(0 20.444444444444443)"/><use xlink:href="#S" transform="matrix(1,0,0,1,499.77130296073415,1416.5) translate(0 20.444444444444443)"/><use xlink:href="#T" transform="matrix(1,0,0,1,328.1338582677172,1453.5) translate(0 20.444444444444443)"/><use xlink:href="#S" transform="matrix(1,0,0,1,499.77130296073415,1453.5) translate(0 20.444444444444443)"/><path d="M-500 1343a6 6 0 0 1 6-6h472.1a6 6 0 0 1 6 6v102a6 6 0 0 1-6 6H-494a6 6 0 0 1-6-6z" fill="#fff"/><path d="M-500 1343a6 6 0 0 1 6-6h472.1a6 6 0 0 1 6 6v102a6 6 0 0 1-6 6H-494a6 6 0 0 1-6-6zM-500 1377h484.1M-442.93 1377v74M-205.23 1377v74" stroke="#3a414a" fill="none"/><use xlink:href="#U" transform="matrix(1,0,0,1,-490,1337) translate(181.94444444444446 24.444444444444443)"/><use xlink:href="#V" transform="matrix(1,0,0,1,-495,1379.5) translate(8.598765432098766 20.444444444444443)"/><use xlink:href="#P" transform="matrix(1,0,0,1,-437.92550357527136,1379.5) translate(0 20.444444444444443)"/><use xlink:href="#d" transform="matrix(1,0,0,1,-200.22869703926585,1379.5) translate(0 20.444444444444443)"/><use xlink:href="#W" transform="matrix(1,0,0,1,-437.92550357527136,1416.5) translate(0 20.444444444444443)"/><use xlink:href="#f" transform="matrix(1,0,0,1,-200.22869703926585,1416.5) translate(0 20.444444444444443)"/><path d="M183.7 212.87H106a6 6 0 0 0-6 6V1352.5a6 6 0 0 0 6 6h74.1" stroke="#3a414a" fill="none"/><path d="M183.7 202.87v20M203.7 212.87h-20" stroke="#3a414a" fill="#fff"/><path d="M199.28 1368.5l-20-10 20-10" stroke="#3a414a" fill="#fff" fill-opacity="0"/><path d="M199.28 1358.5h-20" stroke="#3a414a" fill="#fff"/><path d="M920 1380a6 6 0 0 1 6-6h472.1a6 6 0 0 1 6 6v102a6 6 0 0 1-6 6H926a6 6 0 0 1-6-6z" fill="#fff"/><path d="M920 1380a6 6 0 0 1 6-6h472.1a6 6 0 0 1 6 6v102a6 6 0 0 1-6 6H926a6 6 0 0 1-6-6zM920 1414h484.1M977.07 1414v74M1214.77 1414v74" stroke="#3a414a" fill="none"/><use xlink:href="#X" transform="matrix(1,0,0,1,930,1374) translate(198.64197530864197 24.444444444444443)"/><use xlink:href="#V" transform="matrix(1,0,0,1,925,1416.5) translate(8.598765432098766 20.444444444444443)"/><use xlink:href="#Y" transform="matrix(1,0,0,1,982.0744964247286,1416.5) translate(0 20.444444444444443)"/><use xlink:href="#d" transform="matrix(1,0,0,1,1219.7713029607341,1416.5) translate(0 20.444444444444443)"/><use xlink:href="#Z" transform="matrix(1,0,0,1,982.0744964247286,1453.5) translate(0 20.444444444444443)"/><use xlink:href="#f" transform="matrix(1,0,0,1,1219.7713029607341,1453.5) translate(0 20.444444444444443)"/><path d="M899.5 1432.5H704.6" stroke="#3a414a" fill="none"/><path d="M899.5 1422.5v20M919.5 1432.5h-20M704.6 1442.5v-20M684.6 1432.5h20" stroke="#3a414a" fill="#fff"/><path d="M-500 426a6 6 0 0 1 6-6h472.1a6 6 0 0 1 6 6v102a6 6 0 0 1-6 6H-494a6 6 0 0 1-6-6z" fill="#fff"/><path d="M-500 426a6 6 0 0 1 6-6h472.1a6 6 0 0 1 6 6v102a6 6 0 0 1-6 6H-494a6 6 0 0 1-6-6zM-500 460h484.1M-442.93 460v74M-205.23 460v74" stroke="#3a414a" fill="none"/><use xlink:href="#aa" transform="matrix(1,0,0,1,-490,420) translate(162.9012345679012 24.444444444444443)"/><use xlink:href="#V" transform="matrix(1,0,0,1,-495,462.5) translate(8.598765432098766 20.444444444444443)"/><use xlink:href="#ab" transform="matrix(1,0,0,1,-437.92550357527136,462.5) translate(0 20.444444444444443)"/><use xlink:href="#d" transform="matrix(1,0,0,1,-200.22869703926585,462.5) translate(0 20.444444444444443)"/><use xlink:href="#v" transform="matrix(1,0,0,1,-437.92550357527136,499.5) translate(0 20.444444444444443)"/><use xlink:href="#d" transform="matrix(1,0,0,1,-200.22869703926585,499.5) translate(0 20.444444444444443)"/><path d="M-500 666a6 6 0 0 1 6-6h472.1a6 6 0 0 1 6 6v102a6 6 0 0 1-6 6H-494a6 6 0 0 1-6-6z" fill="#fff"/><path d="M-500 666a6 6 0 0 1 6-6h472.1a6 6 0 0 1 6 6v102a6 6 0 0 1-6 6H-494a6 6 0 0 1-6-6zM-500 700h484.1M-442.93 700v74M-205.23 700v74" stroke="#3a414a" fill="none"/><use xlink:href="#ac" transform="matrix(1,0,0,1,-490,660) translate(173.9506172839506 24.444444444444443)"/><use xlink:href="#V" transform="matrix(1,0,0,1,-495,702.5) translate(8.598765432098766 20.444444444444443)"/><use xlink:href="#ad" transform="matrix(1,0,0,1,-437.92550357527136,702.5) translate(0 20.444444444444443)"/><use xlink:href="#d" transform="matrix(1,0,0,1,-200.22869703926585,702.5) translate(0 20.444444444444443)"/><use xlink:href="#v" transform="matrix(1,0,0,1,-437.92550357527136,739.5) translate(0 20.444444444444443)"/><use xlink:href="#d" transform="matrix(1,0,0,1,-200.22869703926585,739.5) translate(0 20.444444444444443)"/><path d="M4.6 515.58H24a6 6 0 0 1 6 6v137.1a6 6 0 0 0 6 6h167.7" stroke="#3a414a" fill="none"/><path d="M4.6 525.58v-20M-15.4 515.58h20" stroke="#3a414a" fill="#fff"/><path d="M203.2 679.7v-30M4.6 755.5H24a6 6 0 0 0 6-6v-78.8a6 6 0 0 1 6-6h147.7" stroke="#3a414a" fill="none"/><path d="M4.6 765.5v-20M-15.4 755.5h20M183.7 654.7v20M203.7 664.7h-20" stroke="#3a414a" fill="#fff"/><path d="M4.6 1395.5h175.5" stroke="#3a414a" fill="none"/><path d="M4.6 1405.5v-20M-15.4 1395.5h20" stroke="#3a414a" fill="#fff"/><path d="M199.28 1405.5l-20-10 20-10" stroke="#3a414a" fill="#fff" fill-opacity="0"/><path d="M199.28 1395.5h-20" stroke="#3a414a" fill="#fff"/><path d="M920 1089a6 6 0 0 1 6-6h472.1a6 6 0 0 1 6 6v139a6 6 0 0 1-6 6H926a6 6 0 0 1-6-6z" fill="#fff"/><path d="M920 1089a6 6 0 0 1 6-6h472.1a6 6 0 0 1 6 6v139a6 6 0 0 1-6 6H926a6 6 0 0 1-6-6zM920 1123h484.1M1041.33 1123v111M1241.44 1123v111" stroke="#3a414a" fill="none"/><use xlink:href="#ae" transform="matrix(1,0,0,1,930,1083.0030982011456) translate(135.7716049382716 24.444444444444443)"/><use xlink:href="#I" transform="matrix(1,0,0,1,930,1083.0030982011456) translate(201.14197530864197 24.444444444444443)"/><use xlink:href="#J" transform="matrix(1,0,0,1,930,1083.0030982011456) translate(213.48765432098764 24.444444444444443)"/><use xlink:href="#K" transform="matrix(1,0,0,1,925,1125.5030982011456) translate(22.75925925925926 20.444444444444443)"/><use xlink:href="#v" transform="matrix(1,0,0,1,1046.3333333333335,1125.5030982011456) translate(0 20.444444444444443)"/><use xlink:href="#d" transform="matrix(1,0,0,1,1246.4379696274007,1125.5030982011456) translate(0 20.444444444444443)"/><use xlink:href="#K" transform="matrix(1,0,0,1,925,1162.5030982011456) translate(22.75925925925926 20.444444444444443)"/><use xlink:href="#F" transform="matrix(1,0,0,1,1046.3333333333335,1162.5030982011456) translate(0 20.444444444444443)"/><use xlink:href="#d" transform="matrix(1,0,0,1,1246.4379696274007,1162.5030982011456) translate(0 20.444444444444443)"/><use xlink:href="#Q" transform="matrix(1,0,0,1,925,1199.5030982011456) translate(41.833333333333336 20.444444444444443)"/><use xlink:href="#R" transform="matrix(1,0,0,1,1046.3333333333335,1199.5030982011456) translate(0 20.444444444444443)"/><use xlink:href="#S" transform="matrix(1,0,0,1,1246.4379696274007,1199.5030982011456) translate(0 20.444444444444443)"/><path d="M694.6 1178.5h205.5" stroke="#3a414a" fill="none"/><path d="M694.6 1188.5v-20M674.6 1178.5h20" stroke="#3a414a" fill="#fff"/><path d="M919.28 1188.5l-20-10 20-10" stroke="#3a414a" fill="#fff" fill-opacity="0"/><path d="M919.28 1178.5h-20" stroke="#3a414a" fill="#fff"/><path d="M708.8 664.7H744a6 6 0 0 1 6 6v464.8a6 6 0 0 0 6 6h144.1" stroke="#3a414a" fill="none"/><path d="M708.8 674.7v-20M688.8 664.7h20" stroke="#3a414a" fill="#fff"/><path d="M919.28 1151.5l-20-10 20-10" stroke="#3a414a" fill="#fff" fill-opacity="0"/><path d="M919.28 1141.5h-20" stroke="#3a414a" fill="#fff"/><path d="M1424.6 1215.5h49.4a6 6 0 0 1 6 6v205a6 6 0 0 1-6 6h-49.4" stroke="#3a414a" fill="none"/><path d="M1424.6 1225.5v-20M1404.6 1215.5h20M1424.6 1442.5v-20M1404.6 1432.5h20" stroke="#3a414a" fill="#fff"/><path d="M-500 846a6 6 0 0 1 6-6h472.1a6 6 0 0 1 6 6v102a6 6 0 0 1-6 6H-494a6 6 0 0 1-6-6z" fill="#fff"/><path d="M-500 846a6 6 0 0 1 6-6h472.1a6 6 0 0 1 6 6v102a6 6 0 0 1-6 6H-494a6 6 0 0 1-6-6zM-500 880h484.1M-374.87 880v74M-154.87 880v74" stroke="#3a414a" fill="none"/><use xlink:href="#af" transform="matrix(1,0,0,1,-490,840) translate(103.08641975308643 24.444444444444443)"/><use xlink:href="#I" transform="matrix(1,0,0,1,-490,840) translate(248.4567901234568 24.444444444444443)"/><use xlink:href="#ag" transform="matrix(1,0,0,1,-490,840) translate(260.8024691358025 24.444444444444443)"/><use xlink:href="#K" transform="matrix(1,0,0,1,-495,882.5) translate(24.75925925925926 20.444444444444443)"/><use xlink:href="#ab" transform="matrix(1,0,0,1,-369.86614173228304,882.5) translate(0 20.444444444444443)"/><use xlink:href="#d" transform="matrix(1,0,0,1,-149.86614173228304,882.5) translate(0 20.444444444444443)"/><use xlink:href="#K" transform="matrix(1,0,0,1,-495,919.5) translate(24.75925925925926 20.444444444444443)"/><use xlink:href="#P" transform="matrix(1,0,0,1,-369.86614173228304,919.5) translate(0 20.444444444444443)"/><use xlink:href="#d" transform="matrix(1,0,0,1,-149.86614173228304,919.5) translate(0 20.444444444444443)"/><path d="M-500 1071.5a6 6 0 0 1 6-6h472.1a6 6 0 0 1 6 6v102a6 6 0 0 1-6 6H-494a6 6 0 0 1-6-6z" fill="#fff"/><path d="M-500 1071.5a6 6 0 0 1 6-6h472.1a6 6 0 0 1 6 6v102a6 6 0 0 1-6 6H-494a6 6 0 0 1-6-6zM-500 1105.5h484.1M-374.87 1105.5v74M-154.87 1105.5v74" stroke="#3a414a" fill="none"/><use xlink:href="#ah" transform="matrix(1,0,0,1,-490,1065.5) translate(115.98765432098766 24.444444444444443)"/><use xlink:href="#I" transform="matrix(1,0,0,1,-490,1065.5) translate(235.55555555555554 24.444444444444443)"/><use xlink:href="#ag" transform="matrix(1,0,0,1,-490,1065.5) translate(247.9012345679012 24.444444444444443)"/><use xlink:href="#K" transform="matrix(1,0,0,1,-495,1108) translate(24.75925925925926 20.444444444444443)"/><use xlink:href="#ad" transform="matrix(1,0,0,1,-369.86614173228304,1108) translate(0 20.444444444444443)"/><use xlink:href="#d" transform="matrix(1,0,0,1,-149.86614173228304,1108) translate(0 20.444444444444443)"/><use xlink:href="#K" transform="matrix(1,0,0,1,-495,1145) translate(24.75925925925926 20.444444444444443)"/><use xlink:href="#P" transform="matrix(1,0,0,1,-369.86614173228304,1145) translate(0 20.444444444444443)"/><use xlink:href="#d" transform="matrix(1,0,0,1,-149.86614173228304,1145) translate(0 20.444444444444443)"/><path d="M-520.5 1395.5H-604a6 6 0 0 1-6-6V941.58a6 6 0 0 1 6-6h84.1" stroke="#3a414a" fill="none"/><path d="M-520.5 1385.5v20M-500.5 1395.5h-20" stroke="#3a414a" fill="#fff"/><path d="M-500.72 945.58l-20-10 20-10" stroke="#3a414a" fill="#fff" fill-opacity="0"/><path d="M-500.72 935.58h-20" stroke="#3a414a" fill="#fff"/><path d="M-519.9 1161.08H-554a6 6 0 0 0-6 6v222.42a6 6 0 0 0 6 6h33.5" stroke="#3a414a" fill="none"/><path d="M-500.72 1171.08l-20-10 20-10" stroke="#3a414a" fill="#fff" fill-opacity="0"/><path d="M-500.72 1161.08h-20M-520.5 1385.5v20M-500.5 1395.5h-20" stroke="#3a414a" fill="#fff"/><path d="M-520.5 718.5H-664a6 6 0 0 0-6 6V1118a6 6 0 0 0 6 6h144.1" stroke="#3a414a" fill="none"/><path d="M-520.5 708.5v20M-500.5 718.5h-20" stroke="#3a414a" fill="#fff"/><path d="M-500.72 1134l-20-10 20-10" stroke="#3a414a" fill="#fff" fill-opacity="0"/><path d="M-500.72 1124h-20" stroke="#3a414a" fill="#fff"/><path d="M-520.5 478.5H-604a6 6 0 0 0-6 6v408a6 6 0 0 0 6 6h84.1" stroke="#3a414a" fill="none"/><path d="M-520.5 468.5v20M-500.5 478.5h-20" stroke="#3a414a" fill="#fff"/><path d="M-500.72 908.5l-20-10 20-10" stroke="#3a414a" fill="#fff" fill-opacity="0"/><path d="M-500.72 898.5h-20" stroke="#3a414a" fill="#fff"/><path d="M898.78 346a6 6 0 0 1 6-6h473.33a6 6 0 0 1 6 6v213a6 6 0 0 1-6 6H904.8a6 6 0 0 1-6-6z" fill="#fff"/><path d="M898.78 346a6 6 0 0 1 6-6h473.33a6 6 0 0 1 6 6v213a6 6 0 0 1-6 6H904.8a6 6 0 0 1-6-6zM898.78 380h485.33M958.78 380v185M1219.13 380v185" stroke="#3a414a" fill="none"/><use xlink:href="#ai" transform="matrix(1,0,0,1,908.7770236034999,340) translate(152.93827160493828 24.444444444444443)"/><use xlink:href="#I" transform="matrix(1,0,0,1,908.7770236034999,340) translate(241.51851851851853 24.444444444444443)"/><use xlink:href="#aj" transform="matrix(1,0,0,1,908.7770236034999,340) translate(253.8641975308642 24.444444444444443)"/><use xlink:href="#b" transform="matrix(1,0,0,1,903.7770236034999,382.5) translate(9.598765432098766 20.444444444444443)"/><use xlink:href="#ak" transform="matrix(1,0,0,1,963.7770236034999,382.5) translate(0 20.444444444444443)"/><use xlink:href="#d" transform="matrix(1,0,0,1,1224.1338582677172,382.5) translate(0 20.444444444444443)"/><use xlink:href="#g" transform="matrix(1,0,0,1,903.7770236034999,419.5) translate(10.246913580246915 20.444444444444443)"/><use xlink:href="#c" transform="matrix(1,0,0,1,963.7770236034999,419.5) translate(0 20.444444444444443)"/><use xlink:href="#d" transform="matrix(1,0,0,1,1224.1338582677172,419.5) translate(0 20.444444444444443)"/><g><use xlink:href="#g" transform="matrix(1,0,0,1,903.7770236034999,456.5) translate(10.246913580246915 20.444444444444443)"/></g><g><use xlink:href="#v" transform="matrix(1,0,0,1,963.7770236034999,456.5) translate(0 20.444444444444443)"/></g><g><use xlink:href="#d" transform="matrix(1,0,0,1,1224.1338582677172,456.5) translate(0 20.444444444444443)"/></g><g><use xlink:href="#al" transform="matrix(1,0,0,1,963.7770236034999,493.5) translate(0 20.444444444444443)"/></g><g><use xlink:href="#am" transform="matrix(1,0,0,1,1224.1338582677172,493.5) translate(0 20.444444444444443)"/></g><g><use xlink:href="#an" transform="matrix(1,0,0,1,963.7770236034999,530.5) translate(0 20.444444444444443)"/></g><g><use xlink:href="#ao" transform="matrix(1,0,0,1,1224.1338582677172,530.5) translate(0 20.444444444444443)"/></g><path d="M708.8 212.87H834a6 6 0 0 1 6 6V429.5a6 6 0 0 0 6 6h32.87" stroke="#3a414a" fill="none"/><path d="M708.8 222.87v-20M688.8 212.87h20" stroke="#3a414a" fill="#fff"/><path d="M898.05 445.5l-20-10 20-10" stroke="#3a414a" fill="#fff" fill-opacity="0"/><path d="M898.05 435.5h-20" stroke="#3a414a" fill="#fff"/><path d="M708.8 664.47H744a6 6 0 0 0 6-6V478.5a6 6 0 0 1 6-6h122.87" stroke="#3a414a" fill="none"/><path d="M708.8 674.47v-20M688.8 664.47h20" stroke="#3a414a" fill="#fff"/><path d="M898.05 482.5l-20-10 20-10" stroke="#3a414a" fill="#fff" fill-opacity="0"/><path d="M898.05 472.5h-20" stroke="#3a414a" fill="#fff"/><defs><path fill="#3a414a" d="M169-182c-1-43-94-46-97-3 18 66 151 10 154 114 3 95-165 93-204 36-6-8-10-19-12-30l50-8c3 46 112 56 116 5-17-69-150-10-154-114-4-87 153-88 188-35 5 8 8 18 10 28" id="ap"/><path fill="#3a414a" d="M115-3C79 11 28 4 28-45v-112H4v-33h27l15-45h31v45h36v33H77v99c-1 23 16 31 38 25v30" id="aq"/><path fill="#3a414a" d="M85 4C-2 5 27-109 22-190h50c7 57-23 150 33 157 60-5 35-97 40-157h50l1 190h-47c-2-12 1-28-3-38-12 25-28 42-61 42" id="ar"/><path fill="#3a414a" d="M88-194c31-1 46 15 58 34l-1-101h50l1 261h-48c-2-10 0-23-3-31C134-8 116 4 84 4 32 4 16-41 15-95c0-56 19-97 73-99zm17 164c33 0 40-30 41-66 1-37-9-64-41-64s-38 30-39 65c0 43 13 65 39 65" id="as"/><path fill="#3a414a" d="M185-48c-13 30-37 53-82 52C43 2 14-33 14-96s30-98 90-98c62 0 83 45 84 108H66c0 31 8 55 39 56 18 0 30-7 34-22zm-45-69c5-46-57-63-70-21-2 6-4 13-4 21h74" id="at"/><path fill="#3a414a" d="M135-194c87-1 58 113 63 194h-50c-7-57 23-157-34-157-59 0-34 97-39 157H25l-1-190h47c2 12-1 28 3 38 12-26 28-41 61-42" id="au"/><path fill="#3a414a" d="M137-138c1-29-70-34-71-4 15 46 118 7 119 86 1 83-164 76-172 9l43-7c4 19 20 25 44 25 33 8 57-30 24-41C81-84 22-81 20-136c-2-80 154-74 161-7" id="av"/><g id="a"><use transform="matrix(0.06172839506172839,0,0,0.06172839506172839,0,0)" xlink:href="#ap"/><use transform="matrix(0.06172839506172839,0,0,0.06172839506172839,14.814814814814813,0)" xlink:href="#aq"/><use transform="matrix(0.06172839506172839,0,0,0.06172839506172839,22.160493827160494,0)" xlink:href="#ar"/><use transform="matrix(0.06172839506172839,0,0,0.06172839506172839,35.67901234567901,0)" xlink:href="#as"/><use transform="matrix(0.06172839506172839,0,0,0.06172839506172839,49.19753086419753,0)" xlink:href="#at"/><use transform="matrix(0.06172839506172839,0,0,0.06172839506172839,61.54320987654321,0)" xlink:href="#au"/><use transform="matrix(0.06172839506172839,0,0,0.06172839506172839,75.06172839506172,0)" xlink:href="#aq"/><use transform="matrix(0.06172839506172839,0,0,0.06172839506172839,82.4074074074074,0)" xlink:href="#av"/></g><path fill="#3a414a" d="M24-248c93 1 206-16 204 79-1 75-69 88-152 82V0H24v-248zm52 121c47 0 100 7 100-41 0-47-54-39-100-39v80" id="aw"/><path fill="#3a414a" d="M195 0l-88-114-31 24V0H24v-248h52v113l112-113h60L142-143 257 0h-62" id="ax"/><g id="b"><use transform="matrix(0.06172839506172839,0,0,0.06172839506172839,0,0)" xlink:href="#aw"/><use transform="matrix(0.06172839506172839,0,0,0.06172839506172839,14.814814814814813,0)" xlink:href="#ax"/></g><path fill="#3a414a" d="M-4 44V30h207v14H-4" id="ay"/><path fill="#3a414a" d="M24 0v-248h52V0H24" id="az"/><path fill="#3a414a" d="M24-248c120-7 223 5 221 122C244-46 201 0 124 0H24v-248zM76-40c74 7 117-18 117-86 0-67-45-88-117-82v168" id="aA"/><g id="c"><use transform="matrix(0.06172839506172839,0,0,0.06172839506172839,0,0)" xlink:href="#av"/><use transform="matrix(0.06172839506172839,0,0,0.06172839506172839,12.345679012345679,0)" xlink:href="#aq"/><use transform="matrix(0.06172839506172839,0,0,0.06172839506172839,19.691358024691358,0)" xlink:href="#ar"/><use transform="matrix(0.06172839506172839,0,0,0.06172839506172839,33.20987654320987,0)" xlink:href="#as"/><use transform="matrix(0.06172839506172839,0,0,0.06172839506172839,46.72839506172839,0)" xlink:href="#at"/><use transform="matrix(0.06172839506172839,0,0,0.06172839506172839,59.07407407407407,0)" xlink:href="#au"/><use transform="matrix(0.06172839506172839,0,0,0.06172839506172839,72.59259259259258,0)" xlink:href="#aq"/><use transform="matrix(0.06172839506172839,0,0,0.06172839506172839,79.93827160493827,0)" xlink:href="#ay"/><use transform="matrix(0.06172839506172839,0,0,0.06172839506172839,92.28395061728395,0)" xlink:href="#az"/><use transform="matrix(0.06172839506172839,0,0,0.06172839506172839,98.45679012345678,0)" xlink:href="#aA"/></g><path fill="#3a414a" d="M175 0L67-191c6 58 2 128 3 191H24v-248h59L193-55c-6-58-2-129-3-193h46V0h-61" id="aB"/><path fill="#3a414a" d="M136-208V0H84v-208H4v-40h212v40h-80" id="aC"/><g id="d"><use transform="matrix(0.06172839506172839,0,0,0.06172839506172839,0,0)" xlink:href="#az"/><use transform="matrix(0.06172839506172839,0,0,0.06172839506172839,6.172839506172839,0)" xlink:href="#aB"/><use transform="matrix(0.06172839506172839,0,0,0.06172839506172839,22.160493827160494,0)" xlink:href="#aC"/></g><path fill="#3a414a" d="M135-143c-3-34-86-38-87 0 15 53 115 12 119 90S17 21 10-45l28-5c4 36 97 45 98 0-10-56-113-15-118-90-4-57 82-63 122-42 12 7 21 19 24 35" id="aD"/><path fill="#3a414a" d="M59-47c-2 24 18 29 38 22v24C64 9 27 4 27-40v-127H5v-23h24l9-43h21v43h35v23H59v120" id="aE"/><path fill="#3a414a" d="M84 4C-5 8 30-112 23-190h32v120c0 31 7 50 39 49 72-2 45-101 50-169h31l1 190h-30c-1-10 1-25-2-33-11 22-28 36-60 37" id="aF"/><path fill="#3a414a" d="M85-194c31 0 48 13 60 33l-1-100h32l1 261h-30c-2-10 0-23-3-31C134-8 116 4 85 4 32 4 16-35 15-94c0-66 23-100 70-100zm9 24c-40 0-46 34-46 75 0 40 6 74 45 74 42 0 51-32 51-76 0-42-9-74-50-73" id="aG"/><path fill="#3a414a" d="M100-194c63 0 86 42 84 106H49c0 40 14 67 53 68 26 1 43-12 49-29l28 8c-11 28-37 45-77 45C44 4 14-33 15-96c1-61 26-98 85-98zm52 81c6-60-76-77-97-28-3 7-6 17-6 28h103" id="aH"/><path fill="#3a414a" d="M117-194c89-4 53 116 60 194h-32v-121c0-31-8-49-39-48C34-167 62-67 57 0H25l-1-190h30c1 10-1 24 2 32 11-22 29-35 61-36" id="aI"/><path fill="#3a414a" d="M-5 72V49h209v23H-5" id="aJ"/><path fill="#3a414a" d="M141-36C126-15 110 5 73 4 37 3 15-17 15-53c-1-64 63-63 125-63 3-35-9-54-41-54-24 1-41 7-42 31l-33-3c5-37 33-52 76-52 45 0 72 20 72 64v82c-1 20 7 32 28 27v20c-31 9-61-2-59-35zM48-53c0 20 12 33 32 33 41-3 63-29 60-74-43 2-92-5-92 41" id="aK"/><path fill="#3a414a" d="M210-169c-67 3-38 105-44 169h-31v-121c0-29-5-50-35-48C34-165 62-65 56 0H25l-1-190h30c1 10-1 24 2 32 10-44 99-50 107 0 11-21 27-35 58-36 85-2 47 119 55 194h-31v-121c0-29-5-49-35-48" id="aL"/><g id="e"><use transform="matrix(0.06172839506172839,0,0,0.06172839506172839,0,0)" xlink:href="#aD"/><use transform="matrix(0.06172839506172839,0,0,0.06172839506172839,11.11111111111111,0)" xlink:href="#aE"/><use transform="matrix(0.06172839506172839,0,0,0.06172839506172839,17.28395061728395,0)" xlink:href="#aF"/><use transform="matrix(0.06172839506172839,0,0,0.06172839506172839,29.629629629629626,0)" xlink:href="#aG"/><use transform="matrix(0.06172839506172839,0,0,0.06172839506172839,41.9753086419753,0)" xlink:href="#aH"/><use transform="matrix(0.06172839506172839,0,0,0.06172839506172839,54.32098765432098,0)" xlink:href="#aI"/><use transform="matrix(0.06172839506172839,0,0,0.06172839506172839,66.66666666666666,0)" xlink:href="#aE"/><use transform="matrix(0.06172839506172839,0,0,0.06172839506172839,72.83950617283949,0)" xlink:href="#aJ"/><use transform="matrix(0.06172839506172839,0,0,0.06172839506172839,85.18518518518518,0)" xlink:href="#aI"/><use transform="matrix(0.06172839506172839,0,0,0.06172839506172839,97.53086419753086,0)" xlink:href="#aK"/><use transform="matrix(0.06172839506172839,0,0,0.06172839506172839,109.87654320987654,0)" xlink:href="#aL"/><use transform="matrix(0.06172839506172839,0,0,0.06172839506172839,128.33333333333334,0)" xlink:href="#aH"/></g><path fill="#3a414a" d="M137 0h-34L2-248h35l83 218 83-218h36" id="aM"/><path fill="#3a414a" d="M205 0l-28-72H64L36 0H1l101-248h38L239 0h-34zm-38-99l-47-123c-12 45-31 82-46 123h93" id="aN"/><path fill="#3a414a" d="M233-177c-1 41-23 64-60 70L243 0h-38l-65-103H63V0H30v-248c88 3 205-21 203 71zM63-129c60-2 137 13 137-47 0-61-80-42-137-45v92" id="aO"/><path fill="#3a414a" d="M212-179c-10-28-35-45-73-45-59 0-87 40-87 99 0 60 29 101 89 101 43 0 62-24 78-52l27 14C228-24 195 4 139 4 59 4 22-46 18-125c-6-104 99-153 187-111 19 9 31 26 39 46" id="aP"/><path fill="#3a414a" d="M197 0v-115H63V0H30v-248h33v105h134v-105h34V0h-34" id="aQ"/><path fill="#3a414a" d="M87 75C49 33 22-17 22-94c0-76 28-126 65-167h31c-38 41-64 92-64 168S80 34 118 75H87" id="aR"/><path fill="#3a414a" d="M54-142c48-35 137-8 131 61C196 18 31 33 14-55l32-4c7 23 22 37 52 37 35-1 51-22 54-58 4-55-73-65-99-34H22l8-134h141v27H59" id="aS"/><path fill="#3a414a" d="M101-251c68 0 85 55 85 127S166 4 100 4C33 4 14-52 14-124c0-73 17-127 87-127zm-1 229c47 0 54-49 54-102s-4-102-53-102c-51 0-55 48-55 102 0 53 5 102 54 102" id="aT"/><path fill="#3a414a" d="M33-261c38 41 65 92 65 168S71 34 33 75H2C39 34 66-17 66-93S39-220 2-261h31" id="aU"/><g id="f"><use transform="matrix(0.06172839506172839,0,0,0.06172839506172839,0,0)" xlink:href="#aM"/><use transform="matrix(0.06172839506172839,0,0,0.06172839506172839,13.148148148148147,0)" xlink:href="#aN"/><use transform="matrix(0.06172839506172839,0,0,0.06172839506172839,27.962962962962962,0)" xlink:href="#aO"/><use transform="matrix(0.06172839506172839,0,0,0.06172839506172839,43.95061728395061,0)" xlink:href="#aP"/><use transform="matrix(0.06172839506172839,0,0,0.06172839506172839,59.938271604938265,0)" xlink:href="#aQ"/><use transform="matrix(0.06172839506172839,0,0,0.06172839506172839,75.92592592592592,0)" xlink:href="#aN"/><use transform="matrix(0.06172839506172839,0,0,0.06172839506172839,90.74074074074073,0)" xlink:href="#aO"/><use transform="matrix(0.06172839506172839,0,0,0.06172839506172839,106.72839506172839,0)" xlink:href="#aR"/><use transform="matrix(0.06172839506172839,0,0,0.06172839506172839,114.07407407407408,0)" xlink:href="#aS"/><use transform="matrix(0.06172839506172839,0,0,0.06172839506172839,126.41975308641977,0)" xlink:href="#aT"/><use transform="matrix(0.06172839506172839,0,0,0.06172839506172839,138.76543209876544,0)" xlink:href="#aU"/></g><path fill="#3a414a" d="M76-208v77h127v40H76V0H24v-248h183v40H76" id="aV"/><g id="g"><use transform="matrix(0.06172839506172839,0,0,0.06172839506172839,0,0)" xlink:href="#aV"/><use transform="matrix(0.06172839506172839,0,0,0.06172839506172839,13.518518518518517,0)" xlink:href="#ax"/></g><path fill="#3a414a" d="M135-194c52 0 70 43 70 98 0 56-19 99-73 100-30 1-46-15-58-35L72 0H24l1-261h50v104c11-23 29-37 60-37zM114-30c31 0 40-27 40-66 0-37-7-63-39-63s-41 28-41 65c0 36 8 64 40 64" id="aW"/><path fill="#3a414a" d="M133-34C117-15 103 5 69 4 32 3 11-16 11-54c-1-60 55-63 116-61 1-26-3-47-28-47-18 1-26 9-28 27l-52-2c7-38 36-58 82-57s74 22 75 68l1 82c-1 14 12 18 25 15v27c-30 8-71 5-69-32zm-48 3c29 0 43-24 42-57-32 0-66-3-65 30 0 17 8 27 23 27" id="aX"/><path fill="#3a414a" d="M190-63c-7 42-38 67-86 67-59 0-84-38-90-98-12-110 154-137 174-36l-49 2c-2-19-15-32-35-32-30 0-35 28-38 64-6 74 65 87 74 30" id="aY"/><path fill="#3a414a" d="M114-157C55-157 80-60 75 0H25v-261h50l-1 109c12-26 28-41 61-42 86-1 58 113 63 194h-50c-7-57 23-157-34-157" id="aZ"/><g id="h"><use transform="matrix(0.06172839506172839,0,0,0.06172839506172839,0,0)" xlink:href="#aW"/><use transform="matrix(0.06172839506172839,0,0,0.06172839506172839,13.518518518518517,0)" xlink:href="#aX"/><use transform="matrix(0.06172839506172839,0,0,0.06172839506172839,25.864197530864196,0)" xlink:href="#aq"/><use transform="matrix(0.06172839506172839,0,0,0.06172839506172839,33.20987654320987,0)" xlink:href="#aY"/><use transform="matrix(0.06172839506172839,0,0,0.06172839506172839,45.55555555555555,0)" xlink:href="#aZ"/><use transform="matrix(0.06172839506172839,0,0,0.06172839506172839,59.07407407407407,0)" xlink:href="#ay"/><use transform="matrix(0.06172839506172839,0,0,0.06172839506172839,71.41975308641975,0)" xlink:href="#az"/><use transform="matrix(0.06172839506172839,0,0,0.06172839506172839,77.59259259259258,0)" xlink:href="#aA"/></g><path fill="#3a414a" d="M96-169c-40 0-48 33-48 73s9 75 48 75c24 0 41-14 43-38l32 2c-6 37-31 61-74 61-59 0-76-41-82-99-10-93 101-131 147-64 4 7 5 14 7 22l-32 3c-4-21-16-35-41-35" id="ba"/><g id="i"><use transform="matrix(0.06172839506172839,0,0,0.06172839506172839,0,0)" xlink:href="#aK"/><use transform="matrix(0.06172839506172839,0,0,0.06172839506172839,12.345679012345679,0)" xlink:href="#aE"/><use transform="matrix(0.06172839506172839,0,0,0.06172839506172839,18.51851851851852,0)" xlink:href="#aE"/><use transform="matrix(0.06172839506172839,0,0,0.06172839506172839,24.691358024691358,0)" xlink:href="#aH"/><use transform="matrix(0.06172839506172839,0,0,0.06172839506172839,37.03703703703704,0)" xlink:href="#aI"/><use transform="matrix(0.06172839506172839,0,0,0.06172839506172839,49.382716049382715,0)" xlink:href="#aG"/><use transform="matrix(0.06172839506172839,0,0,0.06172839506172839,61.72839506172839,0)" xlink:href="#aK"/><use transform="matrix(0.06172839506172839,0,0,0.06172839506172839,74.07407407407408,0)" xlink:href="#aI"/><use transform="matrix(0.06172839506172839,0,0,0.06172839506172839,86.41975308641976,0)" xlink:href="#ba"/><use transform="matrix(0.06172839506172839,0,0,0.06172839506172839,97.53086419753087,0)" xlink:href="#aH"/></g><path fill="#3a414a" d="M30-248c118-7 216 8 213 122C240-48 200 0 122 0H30v-248zM63-27c89 8 146-16 146-99s-60-101-146-95v194" id="bb"/><path fill="#3a414a" d="M30 0v-248h187v28H63v79h144v27H63v87h162V0H30" id="bc"/><path fill="#3a414a" d="M33 0v-248h34V0H33" id="bd"/><path fill="#3a414a" d="M240 0l2-218c-23 76-54 145-80 218h-23L58-218 59 0H30v-248h44l77 211c21-75 51-140 76-211h43V0h-30" id="be"/><path fill="#3a414a" d="M68-38c1 34 0 65-14 84H32c9-13 17-26 17-46H33v-38h35" id="bf"/><path fill="#3a414a" d="M101-251c82-7 93 87 43 132L82-64C71-53 59-42 53-27h129V0H18c2-99 128-94 128-182 0-28-16-43-45-43s-46 15-49 41l-32-3c6-41 34-60 81-64" id="bg"/><g id="j"><use transform="matrix(0.06172839506172839,0,0,0.06172839506172839,0,0)" xlink:href="#bb"/><use transform="matrix(0.06172839506172839,0,0,0.06172839506172839,15.987654320987653,0)" xlink:href="#bc"/><use transform="matrix(0.06172839506172839,0,0,0.06172839506172839,30.80246913580247,0)" xlink:href="#aP"/><use transform="matrix(0.06172839506172839,0,0,0.06172839506172839,46.79012345679012,0)" xlink:href="#bd"/><use transform="matrix(0.06172839506172839,0,0,0.06172839506172839,52.96296296296296,0)" xlink:href="#be"/><use transform="matrix(0.06172839506172839,0,0,0.06172839506172839,71.41975308641975,0)" xlink:href="#aN"/><use transform="matrix(0.06172839506172839,0,0,0.06172839506172839,86.23456790123456,0)" xlink:href="#aR"/><use transform="matrix(0.06172839506172839,0,0,0.06172839506172839,93.58024691358024,0)" xlink:href="#aS"/><use transform="matrix(0.06172839506172839,0,0,0.06172839506172839,105.92592592592592,0)" xlink:href="#bf"/><use transform="matrix(0.06172839506172839,0,0,0.06172839506172839,112.09876543209876,0)" xlink:href="#bg"/><use transform="matrix(0.06172839506172839,0,0,0.06172839506172839,124.44444444444444,0)" xlink:href="#aU"/></g><path fill="#3a414a" d="M30-248c87 1 191-15 191 75 0 78-77 80-158 76V0H30v-248zm33 125c57 0 124 11 124-50 0-59-68-47-124-48v98" id="bh"/><path fill="#3a414a" d="M185-189c-5-48-123-54-124 2 14 75 158 14 163 119 3 78-121 87-175 55-17-10-28-26-33-46l33-7c5 56 141 63 141-1 0-78-155-14-162-118-5-82 145-84 179-34 5 7 8 16 11 25" id="bi"/><g id="k"><use transform="matrix(0.06172839506172839,0,0,0.06172839506172839,0,0)" xlink:href="#bh"/><use transform="matrix(0.06172839506172839,0,0,0.06172839506172839,14.814814814814813,0)" xlink:href="#bi"/><use transform="matrix(0.06172839506172839,0,0,0.06172839506172839,29.629629629629626,0)" xlink:href="#bh"/></g><path fill="#3a414a" d="M30 0v-248h33v221h125V0H30" id="bj"/><g id="l"><use transform="matrix(0.06172839506172839,0,0,0.06172839506172839,0,0)" xlink:href="#bb"/><use transform="matrix(0.06172839506172839,0,0,0.06172839506172839,15.987654320987653,0)" xlink:href="#bc"/><use transform="matrix(0.06172839506172839,0,0,0.06172839506172839,30.80246913580247,0)" xlink:href="#aP"/><use transform="matrix(0.06172839506172839,0,0,0.06172839506172839,46.79012345679012,0)" xlink:href="#bd"/><use transform="matrix(0.06172839506172839,0,0,0.06172839506172839,52.96296296296296,0)" xlink:href="#be"/><use transform="matrix(0.06172839506172839,0,0,0.06172839506172839,71.41975308641975,0)" xlink:href="#aN"/><use transform="matrix(0.06172839506172839,0,0,0.06172839506172839,86.23456790123456,0)" xlink:href="#bj"/><use transform="matrix(0.06172839506172839,0,0,0.06172839506172839,98.58024691358024,0)" xlink:href="#aR"/><use transform="matrix(0.06172839506172839,0,0,0.06172839506172839,105.92592592592592,0)" xlink:href="#aS"/><use transform="matrix(0.06172839506172839,0,0,0.06172839506172839,118.27160493827161,0)" xlink:href="#bf"/><use transform="matrix(0.06172839506172839,0,0,0.06172839506172839,124.44444444444444,0)" xlink:href="#bg"/><use transform="matrix(0.06172839506172839,0,0,0.06172839506172839,136.79012345679013,0)" xlink:href="#aU"/></g><path fill="#3a414a" d="M114-163C36-179 61-72 57 0H25l-1-190h30c1 12-1 29 2 39 6-27 23-49 58-41v29" id="bk"/><path fill="#3a414a" d="M143 0L79-87 56-68V0H24v-261h32v163l83-92h37l-77 82L181 0h-38" id="bl"/><g id="n"><use transform="matrix(0.06172839506172839,0,0,0.06172839506172839,0,0)" xlink:href="#aD"/><use transform="matrix(0.06172839506172839,0,0,0.06172839506172839,11.11111111111111,0)" xlink:href="#aE"/><use transform="matrix(0.06172839506172839,0,0,0.06172839506172839,17.28395061728395,0)" xlink:href="#bk"/><use transform="matrix(0.06172839506172839,0,0,0.06172839506172839,24.629629629629626,0)" xlink:href="#aH"/><use transform="matrix(0.06172839506172839,0,0,0.06172839506172839,36.9753086419753,0)" xlink:href="#aK"/><use transform="matrix(0.06172839506172839,0,0,0.06172839506172839,49.32098765432098,0)" xlink:href="#bl"/></g><path fill="#3a414a" d="M190 0L58-211 59 0H30v-248h39L202-35l-2-213h31V0h-41" id="bm"/><path fill="#3a414a" d="M127-220V0H93v-220H8v-28h204v28h-85" id="bn"/><g id="o"><use transform="matrix(0.06172839506172839,0,0,0.06172839506172839,0,0)" xlink:href="#bd"/><use transform="matrix(0.06172839506172839,0,0,0.06172839506172839,6.172839506172839,0)" xlink:href="#bm"/><use transform="matrix(0.06172839506172839,0,0,0.06172839506172839,22.160493827160494,0)" xlink:href="#bn"/></g><path fill="#3a414a" d="M141 0L90-78 38 0H4l68-98-65-92h35l48 74 47-74h35l-64 92 68 98h-35" id="bo"/><g id="p"><use transform="matrix(0.06172839506172839,0,0,0.06172839506172839,0,0)" xlink:href="#aL"/><use transform="matrix(0.06172839506172839,0,0,0.06172839506172839,18.456790123456788,0)" xlink:href="#aK"/><use transform="matrix(0.06172839506172839,0,0,0.06172839506172839,30.80246913580247,0)" xlink:href="#bo"/><use transform="matrix(0.06172839506172839,0,0,0.06172839506172839,41.91358024691358,0)" xlink:href="#aJ"/><use transform="matrix(0.06172839506172839,0,0,0.06172839506172839,54.25925925925926,0)" xlink:href="#aD"/><use transform="matrix(0.06172839506172839,0,0,0.06172839506172839,65.37037037037037,0)" xlink:href="#aE"/><use transform="matrix(0.06172839506172839,0,0,0.06172839506172839,71.5432098765432,0)" xlink:href="#bk"/><use transform="matrix(0.06172839506172839,0,0,0.06172839506172839,78.88888888888889,0)" xlink:href="#aH"/><use transform="matrix(0.06172839506172839,0,0,0.06172839506172839,91.23456790123457,0)" xlink:href="#aK"/><use transform="matrix(0.06172839506172839,0,0,0.06172839506172839,103.58024691358025,0)" xlink:href="#bl"/></g><path fill="#3a414a" d="M182-130c37 4 62 22 62 59C244 23 116-4 24 0v-248c84 5 203-23 205 63 0 31-19 50-47 55zM76-148c40-3 101 13 101-30 0-44-60-28-101-31v61zm0 110c48-3 116 14 116-37 0-48-69-32-116-35v72" id="bp"/><g id="q"><use transform="matrix(0.06172839506172839,0,0,0.06172839506172839,0,0)" xlink:href="#bp"/><use transform="matrix(0.06172839506172839,0,0,0.06172839506172839,15.987654320987653,0)" xlink:href="#aX"/><use transform="matrix(0.06172839506172839,0,0,0.06172839506172839,28.333333333333332,0)" xlink:href="#aq"/><use transform="matrix(0.06172839506172839,0,0,0.06172839506172839,35.67901234567901,0)" xlink:href="#aY"/><use transform="matrix(0.06172839506172839,0,0,0.06172839506172839,48.02469135802469,0)" xlink:href="#aZ"/><use transform="matrix(0.06172839506172839,0,0,0.06172839506172839,61.54320987654321,0)" xlink:href="#at"/><use transform="matrix(0.06172839506172839,0,0,0.06172839506172839,73.88888888888889,0)" xlink:href="#av"/></g><path fill="#3a414a" d="M115-194c53 0 69 39 70 98 0 66-23 100-70 100C84 3 66-7 56-30L54 0H23l1-261h32v101c10-23 28-34 59-34zm-8 174c40 0 45-34 45-75 0-40-5-75-45-74-42 0-51 32-51 76 0 43 10 73 51 73" id="bq"/><path fill="#3a414a" d="M106-169C34-169 62-67 57 0H25v-261h32l-1 103c12-21 28-36 61-36 89 0 53 116 60 194h-32v-121c2-32-8-49-39-48" id="br"/><g id="r"><use transform="matrix(0.06172839506172839,0,0,0.06172839506172839,0,0)" xlink:href="#bq"/><use transform="matrix(0.06172839506172839,0,0,0.06172839506172839,12.345679012345679,0)" xlink:href="#aK"/><use transform="matrix(0.06172839506172839,0,0,0.06172839506172839,24.691358024691358,0)" xlink:href="#aE"/><use transform="matrix(0.06172839506172839,0,0,0.06172839506172839,30.864197530864196,0)" xlink:href="#ba"/><use transform="matrix(0.06172839506172839,0,0,0.06172839506172839,41.9753086419753,0)" xlink:href="#br"/><use transform="matrix(0.06172839506172839,0,0,0.06172839506172839,54.32098765432098,0)" xlink:href="#aJ"/><use transform="matrix(0.06172839506172839,0,0,0.06172839506172839,66.66666666666666,0)" xlink:href="#aI"/><use transform="matrix(0.06172839506172839,0,0,0.06172839506172839,79.01234567901234,0)" xlink:href="#aK"/><use transform="matrix(0.06172839506172839,0,0,0.06172839506172839,91.35802469135803,0)" xlink:href="#aL"/><use transform="matrix(0.06172839506172839,0,0,0.06172839506172839,109.81481481481481,0)" xlink:href="#aH"/></g><g id="s"><use transform="matrix(0.06172839506172839,0,0,0.06172839506172839,0,0)" xlink:href="#aD"/><use transform="matrix(0.06172839506172839,0,0,0.06172839506172839,11.11111111111111,0)" xlink:href="#aE"/><use transform="matrix(0.06172839506172839,0,0,0.06172839506172839,17.28395061728395,0)" xlink:href="#aK"/><use transform="matrix(0.06172839506172839,0,0,0.06172839506172839,29.629629629629626,0)" xlink:href="#bk"/><use transform="matrix(0.06172839506172839,0,0,0.06172839506172839,36.9753086419753,0)" xlink:href="#aE"/><use transform="matrix(0.06172839506172839,0,0,0.06172839506172839,43.148148148148145,0)" xlink:href="#aJ"/><use transform="matrix(0.06172839506172839,0,0,0.06172839506172839,55.49382716049382,0)" xlink:href="#aG"/><use transform="matrix(0.06172839506172839,0,0,0.06172839506172839,67.8395061728395,0)" xlink:href="#aK"/><use transform="matrix(0.06172839506172839,0,0,0.06172839506172839,80.18518518518519,0)" xlink:href="#aE"/><use transform="matrix(0.06172839506172839,0,0,0.06172839506172839,86.35802469135803,0)" xlink:href="#aH"/></g><g id="t"><use transform="matrix(0.06172839506172839,0,0,0.06172839506172839,0,0)" xlink:href="#bb"/><use transform="matrix(0.06172839506172839,0,0,0.06172839506172839,15.987654320987653,0)" xlink:href="#aN"/><use transform="matrix(0.06172839506172839,0,0,0.06172839506172839,29.1358024691358,0)" xlink:href="#bn"/><use transform="matrix(0.06172839506172839,0,0,0.06172839506172839,42.654320987654316,0)" xlink:href="#bc"/></g><path fill="#3a414a" d="M67-125c0 53 21 87 73 88 37 1 54-22 65-47l45 17C233-25 199 4 140 4 58 4 20-42 15-125 8-235 124-281 211-232c18 10 29 29 36 50l-46 12c-8-25-30-41-62-41-52 0-71 34-72 86" id="bs"/><path fill="#3a414a" d="M25 0v-261h50V0H25" id="bt"/><g id="u"><use transform="matrix(0.06172839506172839,0,0,0.06172839506172839,0,0)" xlink:href="#bs"/><use transform="matrix(0.06172839506172839,0,0,0.06172839506172839,15.987654320987653,0)" xlink:href="#bt"/><use transform="matrix(0.06172839506172839,0,0,0.06172839506172839,22.160493827160494,0)" xlink:href="#aX"/><use transform="matrix(0.06172839506172839,0,0,0.06172839506172839,34.50617283950617,0)" xlink:href="#av"/><use transform="matrix(0.06172839506172839,0,0,0.06172839506172839,46.85185185185185,0)" xlink:href="#av"/><use transform="matrix(0.06172839506172839,0,0,0.06172839506172839,59.197530864197525,0)" xlink:href="#at"/><use transform="matrix(0.06172839506172839,0,0,0.06172839506172839,71.5432098765432,0)" xlink:href="#av"/></g><g id="v"><use transform="matrix(0.06172839506172839,0,0,0.06172839506172839,0,0)" xlink:href="#aY"/><use transform="matrix(0.06172839506172839,0,0,0.06172839506172839,12.345679012345679,0)" xlink:href="#bt"/><use transform="matrix(0.06172839506172839,0,0,0.06172839506172839,18.51851851851852,0)" xlink:href="#aX"/><use transform="matrix(0.06172839506172839,0,0,0.06172839506172839,30.864197530864196,0)" xlink:href="#av"/><use transform="matrix(0.06172839506172839,0,0,0.06172839506172839,43.20987654320987,0)" xlink:href="#av"/><use transform="matrix(0.06172839506172839,0,0,0.06172839506172839,55.55555555555555,0)" xlink:href="#ay"/><use transform="matrix(0.06172839506172839,0,0,0.06172839506172839,67.90123456790123,0)" xlink:href="#az"/><use transform="matrix(0.06172839506172839,0,0,0.06172839506172839,74.07407407407406,0)" xlink:href="#aA"/></g><path fill="#3a414a" d="M24 0v-261h32V0H24" id="bu"/><g id="w"><use transform="matrix(0.06172839506172839,0,0,0.06172839506172839,0,0)" xlink:href="#ba"/><use transform="matrix(0.06172839506172839,0,0,0.06172839506172839,11.11111111111111,0)" xlink:href="#bu"/><use transform="matrix(0.06172839506172839,0,0,0.06172839506172839,15.987654320987653,0)" xlink:href="#aK"/><use transform="matrix(0.06172839506172839,0,0,0.06172839506172839,28.333333333333332,0)" xlink:href="#aD"/><use transform="matrix(0.06172839506172839,0,0,0.06172839506172839,39.44444444444444,0)" xlink:href="#aD"/><use transform="matrix(0.06172839506172839,0,0,0.06172839506172839,50.55555555555556,0)" xlink:href="#aJ"/><use transform="matrix(0.06172839506172839,0,0,0.06172839506172839,62.901234567901234,0)" xlink:href="#aI"/><use transform="matrix(0.06172839506172839,0,0,0.06172839506172839,75.24691358024691,0)" xlink:href="#aK"/><use transform="matrix(0.06172839506172839,0,0,0.06172839506172839,87.5925925925926,0)" xlink:href="#aL"/><use transform="matrix(0.06172839506172839,0,0,0.06172839506172839,106.04938271604938,0)" xlink:href="#aH"/></g><path fill="#3a414a" d="M25-224v-37h50v37H25zM25 0v-190h50V0H25" id="bv"/><path fill="#3a414a" d="M135-150c-39-12-60 13-60 57V0H25l-1-190h47c2 13-1 29 3 40 6-28 27-53 61-41v41" id="bw"/><g id="x"><use transform="matrix(0.06172839506172839,0,0,0.06172839506172839,0,0)" xlink:href="#bv"/><use transform="matrix(0.06172839506172839,0,0,0.06172839506172839,6.172839506172839,0)" xlink:href="#au"/><use transform="matrix(0.06172839506172839,0,0,0.06172839506172839,19.691358024691358,0)" xlink:href="#av"/><use transform="matrix(0.06172839506172839,0,0,0.06172839506172839,32.03703703703704,0)" xlink:href="#aq"/><use transform="matrix(0.06172839506172839,0,0,0.06172839506172839,39.382716049382715,0)" xlink:href="#bw"/><use transform="matrix(0.06172839506172839,0,0,0.06172839506172839,48.02469135802469,0)" xlink:href="#ar"/><use transform="matrix(0.06172839506172839,0,0,0.06172839506172839,61.54320987654321,0)" xlink:href="#aY"/><use transform="matrix(0.06172839506172839,0,0,0.06172839506172839,73.88888888888889,0)" xlink:href="#aq"/><use transform="matrix(0.06172839506172839,0,0,0.06172839506172839,81.23456790123457,0)" xlink:href="#at"/><use transform="matrix(0.06172839506172839,0,0,0.06172839506172839,93.58024691358025,0)" xlink:href="#bw"/></g><path fill="#3a414a" d="M100-194c62-1 85 37 85 99 1 63-27 99-86 99S16-35 15-95c0-66 28-99 85-99zM99-20c44 1 53-31 53-75 0-43-8-75-51-75s-53 32-53 75 10 74 51 75" id="bx"/><path fill="#3a414a" d="M115-194c55 1 70 41 70 98S169 2 115 4C84 4 66-9 55-30l1 105H24l-1-265h31l2 30c10-21 28-34 59-34zm-8 174c40 0 45-34 45-75s-6-73-45-74c-42 0-51 32-51 76 0 43 10 73 51 73" id="by"/><path fill="#3a414a" d="M24-231v-30h32v30H24zM24 0v-190h32V0H24" id="bz"/><g id="y"><use transform="matrix(0.06172839506172839,0,0,0.06172839506172839,0,0)" xlink:href="#aE"/><use transform="matrix(0.06172839506172839,0,0,0.06172839506172839,6.172839506172839,0)" xlink:href="#bx"/><use transform="matrix(0.06172839506172839,0,0,0.06172839506172839,18.51851851851852,0)" xlink:href="#by"/><use transform="matrix(0.06172839506172839,0,0,0.06172839506172839,30.864197530864196,0)" xlink:href="#bz"/><use transform="matrix(0.06172839506172839,0,0,0.06172839506172839,35.74074074074074,0)" xlink:href="#ba"/><use transform="matrix(0.06172839506172839,0,0,0.06172839506172839,46.85185185185185,0)" xlink:href="#aJ"/><use transform="matrix(0.06172839506172839,0,0,0.06172839506172839,59.197530864197525,0)" xlink:href="#aI"/><use transform="matrix(0.06172839506172839,0,0,0.06172839506172839,71.5432098765432,0)" xlink:href="#aK"/><use transform="matrix(0.06172839506172839,0,0,0.06172839506172839,83.88888888888889,0)" xlink:href="#aL"/><use transform="matrix(0.06172839506172839,0,0,0.06172839506172839,102.34567901234567,0)" xlink:href="#aH"/></g><g id="z"><use transform="matrix(0.06172839506172839,0,0,0.06172839506172839,0,0)" xlink:href="#bu"/><use transform="matrix(0.06172839506172839,0,0,0.06172839506172839,4.876543209876543,0)" xlink:href="#aH"/><use transform="matrix(0.06172839506172839,0,0,0.06172839506172839,17.22222222222222,0)" xlink:href="#ba"/><use transform="matrix(0.06172839506172839,0,0,0.06172839506172839,28.333333333333332,0)" xlink:href="#aE"/><use transform="matrix(0.06172839506172839,0,0,0.06172839506172839,34.50617283950617,0)" xlink:href="#aF"/><use transform="matrix(0.06172839506172839,0,0,0.06172839506172839,46.85185185185185,0)" xlink:href="#bk"/><use transform="matrix(0.06172839506172839,0,0,0.06172839506172839,54.197530864197525,0)" xlink:href="#aH"/><use transform="matrix(0.06172839506172839,0,0,0.06172839506172839,66.5432098765432,0)" xlink:href="#aJ"/><use transform="matrix(0.06172839506172839,0,0,0.06172839506172839,78.88888888888889,0)" xlink:href="#aI"/><use transform="matrix(0.06172839506172839,0,0,0.06172839506172839,91.23456790123457,0)" xlink:href="#bx"/><use transform="matrix(0.06172839506172839,0,0,0.06172839506172839,103.58024691358025,0)" xlink:href="#aE"/><use transform="matrix(0.06172839506172839,0,0,0.06172839506172839,109.75308641975309,0)" xlink:href="#aH"/><use transform="matrix(0.06172839506172839,0,0,0.06172839506172839,122.09876543209877,0)" xlink:href="#aD"/></g><path fill="#3a414a" d="M160-131c35 5 61 23 61 61C221 17 115-2 30 0v-248c76 3 177-17 177 60 0 33-19 50-47 57zm-97-11c50-1 110 9 110-42 0-47-63-36-110-37v79zm0 115c55-2 124 14 124-45 0-56-70-42-124-44v89" id="bA"/><path fill="#3a414a" d="M140-251c81 0 123 46 123 126C263-46 219 4 140 4 59 4 17-45 17-125s42-126 123-126zm0 227c63 0 89-41 89-101s-29-99-89-99c-61 0-89 39-89 99S79-25 140-24" id="bB"/><g id="A"><use transform="matrix(0.06172839506172839,0,0,0.06172839506172839,0,0)" xlink:href="#bA"/><use transform="matrix(0.06172839506172839,0,0,0.06172839506172839,14.814814814814813,0)" xlink:href="#bj"/><use transform="matrix(0.06172839506172839,0,0,0.06172839506172839,27.160493827160494,0)" xlink:href="#bB"/><use transform="matrix(0.06172839506172839,0,0,0.06172839506172839,44.44444444444444,0)" xlink:href="#bA"/></g><g id="B"><use transform="matrix(0.06172839506172839,0,0,0.06172839506172839,0,0)" xlink:href="#by"/><use transform="matrix(0.06172839506172839,0,0,0.06172839506172839,12.345679012345679,0)" xlink:href="#bk"/><use transform="matrix(0.06172839506172839,0,0,0.06172839506172839,19.691358024691358,0)" xlink:href="#aH"/><use transform="matrix(0.06172839506172839,0,0,0.06172839506172839,32.03703703703704,0)" xlink:href="#aJ"/><use transform="matrix(0.06172839506172839,0,0,0.06172839506172839,44.382716049382715,0)" xlink:href="#bu"/><use transform="matrix(0.06172839506172839,0,0,0.06172839506172839,49.25925925925926,0)" xlink:href="#aH"/><use transform="matrix(0.06172839506172839,0,0,0.06172839506172839,61.60493827160494,0)" xlink:href="#ba"/><use transform="matrix(0.06172839506172839,0,0,0.06172839506172839,72.71604938271605,0)" xlink:href="#aE"/><use transform="matrix(0.06172839506172839,0,0,0.06172839506172839,78.88888888888889,0)" xlink:href="#aF"/><use transform="matrix(0.06172839506172839,0,0,0.06172839506172839,91.23456790123457,0)" xlink:href="#bk"/><use transform="matrix(0.06172839506172839,0,0,0.06172839506172839,98.58024691358025,0)" xlink:href="#aH"/><use transform="matrix(0.06172839506172839,0,0,0.06172839506172839,110.92592592592594,0)" xlink:href="#aJ"/><use transform="matrix(0.06172839506172839,0,0,0.06172839506172839,123.27160493827162,0)" xlink:href="#ba"/><use transform="matrix(0.06172839506172839,0,0,0.06172839506172839,134.38271604938274,0)" xlink:href="#bx"/><use transform="matrix(0.06172839506172839,0,0,0.06172839506172839,146.7283950617284,0)" xlink:href="#aI"/><use transform="matrix(0.06172839506172839,0,0,0.06172839506172839,159.07407407407408,0)" xlink:href="#aE"/><use transform="matrix(0.06172839506172839,0,0,0.06172839506172839,165.2469135802469,0)" xlink:href="#aH"/><use transform="matrix(0.06172839506172839,0,0,0.06172839506172839,177.59259259259258,0)" xlink:href="#aI"/><use transform="matrix(0.06172839506172839,0,0,0.06172839506172839,189.93827160493825,0)" xlink:href="#aE"/></g><g id="C"><use transform="matrix(0.06172839506172839,0,0,0.06172839506172839,0,0)" xlink:href="#ba"/><use transform="matrix(0.06172839506172839,0,0,0.06172839506172839,11.11111111111111,0)" xlink:href="#bu"/><use transform="matrix(0.06172839506172839,0,0,0.06172839506172839,15.987654320987653,0)" xlink:href="#aK"/><use transform="matrix(0.06172839506172839,0,0,0.06172839506172839,28.333333333333332,0)" xlink:href="#aD"/><use transform="matrix(0.06172839506172839,0,0,0.06172839506172839,39.44444444444444,0)" xlink:href="#aD"/><use transform="matrix(0.06172839506172839,0,0,0.06172839506172839,50.55555555555556,0)" xlink:href="#aJ"/><use transform="matrix(0.06172839506172839,0,0,0.06172839506172839,62.901234567901234,0)" xlink:href="#aE"/><use transform="matrix(0.06172839506172839,0,0,0.06172839506172839,69.07407407407408,0)" xlink:href="#bz"/><use transform="matrix(0.06172839506172839,0,0,0.06172839506172839,73.95061728395062,0)" xlink:href="#aL"/><use transform="matrix(0.06172839506172839,0,0,0.06172839506172839,92.4074074074074,0)" xlink:href="#aH"/></g><g id="D"><use transform="matrix(0.06172839506172839,0,0,0.06172839506172839,0,0)" xlink:href="#bb"/><use transform="matrix(0.06172839506172839,0,0,0.06172839506172839,15.987654320987653,0)" xlink:href="#aN"/><use transform="matrix(0.06172839506172839,0,0,0.06172839506172839,29.1358024691358,0)" xlink:href="#bn"/><use transform="matrix(0.06172839506172839,0,0,0.06172839506172839,42.654320987654316,0)" xlink:href="#bc"/><use transform="matrix(0.06172839506172839,0,0,0.06172839506172839,57.469135802469125,0)" xlink:href="#bn"/><use transform="matrix(0.06172839506172839,0,0,0.06172839506172839,70.98765432098764,0)" xlink:href="#bd"/><use transform="matrix(0.06172839506172839,0,0,0.06172839506172839,77.16049382716048,0)" xlink:href="#be"/><use transform="matrix(0.06172839506172839,0,0,0.06172839506172839,95.61728395061726,0)" xlink:href="#bc"/></g><path fill="#3a414a" d="M110-194c64 0 96 36 96 99 0 64-35 99-97 99-61 0-95-36-95-99 0-62 34-99 96-99zm-1 164c35 0 45-28 45-65 0-40-10-65-43-65-34 0-45 26-45 65 0 36 10 65 43 65" id="bC"/><g id="E"><use transform="matrix(0.06172839506172839,0,0,0.06172839506172839,0,0)" xlink:href="#az"/><use transform="matrix(0.06172839506172839,0,0,0.06172839506172839,6.172839506172839,0)" xlink:href="#au"/><use transform="matrix(0.06172839506172839,0,0,0.06172839506172839,19.691358024691358,0)" xlink:href="#av"/><use transform="matrix(0.06172839506172839,0,0,0.06172839506172839,32.03703703703704,0)" xlink:href="#aq"/><use transform="matrix(0.06172839506172839,0,0,0.06172839506172839,39.382716049382715,0)" xlink:href="#bw"/><use transform="matrix(0.06172839506172839,0,0,0.06172839506172839,48.02469135802469,0)" xlink:href="#ar"/><use transform="matrix(0.06172839506172839,0,0,0.06172839506172839,61.54320987654321,0)" xlink:href="#aY"/><use transform="matrix(0.06172839506172839,0,0,0.06172839506172839,73.88888888888889,0)" xlink:href="#aq"/><use transform="matrix(0.06172839506172839,0,0,0.06172839506172839,81.23456790123457,0)" xlink:href="#bC"/><use transform="matrix(0.06172839506172839,0,0,0.06172839506172839,94.75308641975309,0)" xlink:href="#bw"/><use transform="matrix(0.06172839506172839,0,0,0.06172839506172839,103.39506172839506,0)" xlink:href="#av"/></g><g id="F"><use transform="matrix(0.06172839506172839,0,0,0.06172839506172839,0,0)" xlink:href="#bv"/><use transform="matrix(0.06172839506172839,0,0,0.06172839506172839,6.172839506172839,0)" xlink:href="#au"/><use transform="matrix(0.06172839506172839,0,0,0.06172839506172839,19.691358024691358,0)" xlink:href="#av"/><use transform="matrix(0.06172839506172839,0,0,0.06172839506172839,32.03703703703704,0)" xlink:href="#aq"/><use transform="matrix(0.06172839506172839,0,0,0.06172839506172839,39.382716049382715,0)" xlink:href="#bw"/><use transform="matrix(0.06172839506172839,0,0,0.06172839506172839,48.02469135802469,0)" xlink:href="#ar"/><use transform="matrix(0.06172839506172839,0,0,0.06172839506172839,61.54320987654321,0)" xlink:href="#aY"/><use transform="matrix(0.06172839506172839,0,0,0.06172839506172839,73.88888888888889,0)" xlink:href="#aq"/><use transform="matrix(0.06172839506172839,0,0,0.06172839506172839,81.23456790123457,0)" xlink:href="#bC"/><use transform="matrix(0.06172839506172839,0,0,0.06172839506172839,94.75308641975309,0)" xlink:href="#bw"/><use transform="matrix(0.06172839506172839,0,0,0.06172839506172839,103.39506172839506,0)" xlink:href="#ay"/><use transform="matrix(0.06172839506172839,0,0,0.06172839506172839,115.74074074074075,0)" xlink:href="#az"/><use transform="matrix(0.06172839506172839,0,0,0.06172839506172839,121.91358024691358,0)" xlink:href="#aA"/></g><g id="G"><use transform="matrix(0.06172839506172839,0,0,0.06172839506172839,0,0)" xlink:href="#bz"/><use transform="matrix(0.06172839506172839,0,0,0.06172839506172839,4.876543209876543,0)" xlink:href="#aI"/><use transform="matrix(0.06172839506172839,0,0,0.06172839506172839,17.22222222222222,0)" xlink:href="#aD"/><use transform="matrix(0.06172839506172839,0,0,0.06172839506172839,28.333333333333332,0)" xlink:href="#aE"/><use transform="matrix(0.06172839506172839,0,0,0.06172839506172839,34.50617283950617,0)" xlink:href="#bk"/><use transform="matrix(0.06172839506172839,0,0,0.06172839506172839,41.85185185185185,0)" xlink:href="#aF"/><use transform="matrix(0.06172839506172839,0,0,0.06172839506172839,54.197530864197525,0)" xlink:href="#ba"/><use transform="matrix(0.06172839506172839,0,0,0.06172839506172839,65.30864197530863,0)" xlink:href="#aE"/><use transform="matrix(0.06172839506172839,0,0,0.06172839506172839,71.48148148148147,0)" xlink:href="#bx"/><use transform="matrix(0.06172839506172839,0,0,0.06172839506172839,83.82716049382715,0)" xlink:href="#bk"/><use transform="matrix(0.06172839506172839,0,0,0.06172839506172839,91.17283950617283,0)" xlink:href="#aJ"/><use transform="matrix(0.06172839506172839,0,0,0.06172839506172839,103.51851851851852,0)" xlink:href="#aI"/><use transform="matrix(0.06172839506172839,0,0,0.06172839506172839,115.8641975308642,0)" xlink:href="#aK"/><use transform="matrix(0.06172839506172839,0,0,0.06172839506172839,128.20987654320987,0)" xlink:href="#aL"/><use transform="matrix(0.06172839506172839,0,0,0.06172839506172839,146.66666666666666,0)" xlink:href="#aH"/></g><g id="H"><use transform="matrix(0.06172839506172839,0,0,0.06172839506172839,0,0)" xlink:href="#bp"/><use transform="matrix(0.06172839506172839,0,0,0.06172839506172839,15.987654320987653,0)" xlink:href="#aX"/><use transform="matrix(0.06172839506172839,0,0,0.06172839506172839,28.333333333333332,0)" xlink:href="#aq"/><use transform="matrix(0.06172839506172839,0,0,0.06172839506172839,35.67901234567901,0)" xlink:href="#aY"/><use transform="matrix(0.06172839506172839,0,0,0.06172839506172839,48.02469135802469,0)" xlink:href="#aZ"/></g><path fill="#3a414a" d="M4 7l51-268h42L46 7H4" id="bD"/><use transform="matrix(0.06172839506172839,0,0,0.06172839506172839,0,0)" xlink:href="#bD" id="I"/><g id="J"><use transform="matrix(0.06172839506172839,0,0,0.06172839506172839,0,0)" xlink:href="#az"/><use transform="matrix(0.06172839506172839,0,0,0.06172839506172839,6.172839506172839,0)" xlink:href="#au"/><use transform="matrix(0.06172839506172839,0,0,0.06172839506172839,19.691358024691358,0)" xlink:href="#av"/><use transform="matrix(0.06172839506172839,0,0,0.06172839506172839,32.03703703703704,0)" xlink:href="#aq"/><use transform="matrix(0.06172839506172839,0,0,0.06172839506172839,39.382716049382715,0)" xlink:href="#bw"/><use transform="matrix(0.06172839506172839,0,0,0.06172839506172839,48.02469135802469,0)" xlink:href="#ar"/><use transform="matrix(0.06172839506172839,0,0,0.06172839506172839,61.54320987654321,0)" xlink:href="#aY"/><use transform="matrix(0.06172839506172839,0,0,0.06172839506172839,73.88888888888889,0)" xlink:href="#aq"/><use transform="matrix(0.06172839506172839,0,0,0.06172839506172839,81.23456790123457,0)" xlink:href="#bC"/><use transform="matrix(0.06172839506172839,0,0,0.06172839506172839,94.75308641975309,0)" xlink:href="#bw"/><use transform="matrix(0.06172839506172839,0,0,0.06172839506172839,103.39506172839506,0)" xlink:href="#av"/></g><g id="K"><use transform="matrix(0.06172839506172839,0,0,0.06172839506172839,0,0)" xlink:href="#aw"/><use transform="matrix(0.06172839506172839,0,0,0.06172839506172839,14.814814814814813,0)" xlink:href="#ax"/><use transform="matrix(0.06172839506172839,0,0,0.06172839506172839,30.80246913580247,0)" xlink:href="#bD"/><use transform="matrix(0.06172839506172839,0,0,0.06172839506172839,36.97530864197531,0)" xlink:href="#aV"/><use transform="matrix(0.06172839506172839,0,0,0.06172839506172839,50.49382716049383,0)" xlink:href="#ax"/></g><g id="L"><use transform="matrix(0.06172839506172839,0,0,0.06172839506172839,0,0)" xlink:href="#ap"/><use transform="matrix(0.06172839506172839,0,0,0.06172839506172839,14.814814814814813,0)" xlink:href="#aq"/><use transform="matrix(0.06172839506172839,0,0,0.06172839506172839,22.160493827160494,0)" xlink:href="#ar"/><use transform="matrix(0.06172839506172839,0,0,0.06172839506172839,35.67901234567901,0)" xlink:href="#as"/><use transform="matrix(0.06172839506172839,0,0,0.06172839506172839,49.19753086419753,0)" xlink:href="#at"/><use transform="matrix(0.06172839506172839,0,0,0.06172839506172839,61.54320987654321,0)" xlink:href="#au"/><use transform="matrix(0.06172839506172839,0,0,0.06172839506172839,75.06172839506172,0)" xlink:href="#aq"/><use transform="matrix(0.06172839506172839,0,0,0.06172839506172839,82.4074074074074,0)" xlink:href="#av"/></g><path fill="#3a414a" d="M220-157c-53 9-28 100-34 157h-49v-107c1-27-5-49-29-50C55-147 81-57 75 0H25l-1-190h47c2 12-1 28 3 38 10-53 101-56 108 0 13-22 24-43 59-42 82 1 51 116 57 194h-49v-107c-1-25-5-48-29-50" id="bE"/><g id="M"><use transform="matrix(0.06172839506172839,0,0,0.06172839506172839,0,0)" xlink:href="#aw"/><use transform="matrix(0.06172839506172839,0,0,0.06172839506172839,14.814814814814813,0)" xlink:href="#bw"/><use transform="matrix(0.06172839506172839,0,0,0.06172839506172839,23.456790123456788,0)" xlink:href="#bC"/><use transform="matrix(0.06172839506172839,0,0,0.06172839506172839,36.9753086419753,0)" xlink:href="#aW"/><use transform="matrix(0.06172839506172839,0,0,0.06172839506172839,50.49382716049382,0)" xlink:href="#bt"/><use transform="matrix(0.06172839506172839,0,0,0.06172839506172839,56.666666666666664,0)" xlink:href="#at"/><use transform="matrix(0.06172839506172839,0,0,0.06172839506172839,69.01234567901234,0)" xlink:href="#bE"/><use transform="matrix(0.06172839506172839,0,0,0.06172839506172839,88.76543209876543,0)" xlink:href="#av"/></g><g id="N"><use transform="matrix(0.06172839506172839,0,0,0.06172839506172839,0,0)" xlink:href="#aw"/><use transform="matrix(0.06172839506172839,0,0,0.06172839506172839,14.814814814814813,0)" xlink:href="#ax"/></g><g id="O"><use transform="matrix(0.06172839506172839,0,0,0.06172839506172839,0,0)" xlink:href="#aV"/><use transform="matrix(0.06172839506172839,0,0,0.06172839506172839,13.518518518518517,0)" xlink:href="#ax"/></g><path fill="#3a414a" d="M135-194c53 0 70 44 70 98 0 56-19 98-73 100-31 1-45-17-59-34 3 33 2 69 2 105H25l-1-265h48c2 10 0 23 3 31 11-24 29-35 60-35zM114-30c33 0 39-31 40-66 0-38-9-64-40-64-56 0-55 130 0 130" id="bF"/><g id="P"><use transform="matrix(0.06172839506172839,0,0,0.06172839506172839,0,0)" xlink:href="#bF"/><use transform="matrix(0.06172839506172839,0,0,0.06172839506172839,13.518518518518517,0)" xlink:href="#bw"/><use transform="matrix(0.06172839506172839,0,0,0.06172839506172839,22.160493827160494,0)" xlink:href="#bC"/><use transform="matrix(0.06172839506172839,0,0,0.06172839506172839,35.67901234567901,0)" xlink:href="#aW"/><use transform="matrix(0.06172839506172839,0,0,0.06172839506172839,49.19753086419753,0)" xlink:href="#bt"/><use transform="matrix(0.06172839506172839,0,0,0.06172839506172839,55.370370370370374,0)" xlink:href="#at"/><use transform="matrix(0.06172839506172839,0,0,0.06172839506172839,67.71604938271605,0)" xlink:href="#bE"/><use transform="matrix(0.06172839506172839,0,0,0.06172839506172839,87.46913580246914,0)" xlink:href="#ay"/><use transform="matrix(0.06172839506172839,0,0,0.06172839506172839,99.81481481481482,0)" xlink:href="#az"/><use transform="matrix(0.06172839506172839,0,0,0.06172839506172839,105.98765432098766,0)" xlink:href="#aA"/></g><path fill="#3a414a" d="M63-220v92h138v28H63V0H30v-248h175v28H63" id="bG"/><path fill="#3a414a" d="M194 0L95-120 63-95V0H30v-248h33v124l119-124h40L117-140 236 0h-42" id="bH"/><g id="Q"><use transform="matrix(0.06172839506172839,0,0,0.06172839506172839,0,0)" xlink:href="#bG"/><use transform="matrix(0.06172839506172839,0,0,0.06172839506172839,13.518518518518517,0)" xlink:href="#bH"/></g><g id="R"><use transform="matrix(0.06172839506172839,0,0,0.06172839506172839,0,0)" xlink:href="#aD"/><use transform="matrix(0.06172839506172839,0,0,0.06172839506172839,11.11111111111111,0)" xlink:href="#aE"/><use transform="matrix(0.06172839506172839,0,0,0.06172839506172839,17.28395061728395,0)" xlink:href="#aK"/><use transform="matrix(0.06172839506172839,0,0,0.06172839506172839,29.629629629629626,0)" xlink:href="#aE"/><use transform="matrix(0.06172839506172839,0,0,0.06172839506172839,35.80246913580247,0)" xlink:href="#aF"/><use transform="matrix(0.06172839506172839,0,0,0.06172839506172839,48.148148148148145,0)" xlink:href="#aD"/><use transform="matrix(0.06172839506172839,0,0,0.06172839506172839,59.25925925925925,0)" xlink:href="#aJ"/><use transform="matrix(0.06172839506172839,0,0,0.06172839506172839,71.60493827160494,0)" xlink:href="#bd"/><use transform="matrix(0.06172839506172839,0,0,0.06172839506172839,77.77777777777777,0)" xlink:href="#bb"/></g><g id="S"><use transform="matrix(0.06172839506172839,0,0,0.06172839506172839,0,0)" xlink:href="#bd"/><use transform="matrix(0.06172839506172839,0,0,0.06172839506172839,6.172839506172839,0)" xlink:href="#bm"/><use transform="matrix(0.06172839506172839,0,0,0.06172839506172839,22.160493827160494,0)" xlink:href="#bn"/></g><g id="T"><use transform="matrix(0.06172839506172839,0,0,0.06172839506172839,0,0)" xlink:href="#aL"/><use transform="matrix(0.06172839506172839,0,0,0.06172839506172839,18.456790123456788,0)" xlink:href="#aK"/><use transform="matrix(0.06172839506172839,0,0,0.06172839506172839,30.80246913580247,0)" xlink:href="#bk"/><use transform="matrix(0.06172839506172839,0,0,0.06172839506172839,38.148148148148145,0)" xlink:href="#bl"/><use transform="matrix(0.06172839506172839,0,0,0.06172839506172839,49.25925925925925,0)" xlink:href="#aD"/></g><g id="U"><use transform="matrix(0.06172839506172839,0,0,0.06172839506172839,0,0)" xlink:href="#aw"/><use transform="matrix(0.06172839506172839,0,0,0.06172839506172839,14.814814814814813,0)" xlink:href="#bw"/><use transform="matrix(0.06172839506172839,0,0,0.06172839506172839,23.456790123456788,0)" xlink:href="#bC"/><use transform="matrix(0.06172839506172839,0,0,0.06172839506172839,36.9753086419753,0)" xlink:href="#aW"/><use transform="matrix(0.06172839506172839,0,0,0.06172839506172839,50.49382716049382,0)" xlink:href="#bt"/><use transform="matrix(0.06172839506172839,0,0,0.06172839506172839,56.666666666666664,0)" xlink:href="#at"/><use transform="matrix(0.06172839506172839,0,0,0.06172839506172839,69.01234567901234,0)" xlink:href="#bE"/><use transform="matrix(0.06172839506172839,0,0,0.06172839506172839,88.76543209876543,0)" xlink:href="#av"/></g><g id="V"><use transform="matrix(0.06172839506172839,0,0,0.06172839506172839,0,0)" xlink:href="#aw"/><use transform="matrix(0.06172839506172839,0,0,0.06172839506172839,14.814814814814813,0)" xlink:href="#ax"/></g><g id="W"><use transform="matrix(0.06172839506172839,0,0,0.06172839506172839,0,0)" xlink:href="#aE"/><use transform="matrix(0.06172839506172839,0,0,0.06172839506172839,6.172839506172839,0)" xlink:href="#bx"/><use transform="matrix(0.06172839506172839,0,0,0.06172839506172839,18.51851851851852,0)" xlink:href="#by"/><use transform="matrix(0.06172839506172839,0,0,0.06172839506172839,30.864197530864196,0)" xlink:href="#bz"/><use transform="matrix(0.06172839506172839,0,0,0.06172839506172839,35.74074074074074,0)" xlink:href="#ba"/><use transform="matrix(0.06172839506172839,0,0,0.06172839506172839,46.85185185185185,0)" xlink:href="#aJ"/><use transform="matrix(0.06172839506172839,0,0,0.06172839506172839,59.197530864197525,0)" xlink:href="#aI"/><use transform="matrix(0.06172839506172839,0,0,0.06172839506172839,71.5432098765432,0)" xlink:href="#aK"/><use transform="matrix(0.06172839506172839,0,0,0.06172839506172839,83.88888888888889,0)" xlink:href="#aL"/><use transform="matrix(0.06172839506172839,0,0,0.06172839506172839,102.34567901234567,0)" xlink:href="#aH"/></g><g id="X"><use transform="matrix(0.06172839506172839,0,0,0.06172839506172839,0,0)" xlink:href="#ap"/><use transform="matrix(0.06172839506172839,0,0,0.06172839506172839,14.814814814814813,0)" xlink:href="#aq"/><use transform="matrix(0.06172839506172839,0,0,0.06172839506172839,22.160493827160494,0)" xlink:href="#aX"/><use transform="matrix(0.06172839506172839,0,0,0.06172839506172839,34.50617283950617,0)" xlink:href="#aq"/><use transform="matrix(0.06172839506172839,0,0,0.06172839506172839,41.85185185185185,0)" xlink:href="#ar"/><use transform="matrix(0.06172839506172839,0,0,0.06172839506172839,55.37037037037037,0)" xlink:href="#av"/></g><g id="Y"><use transform="matrix(0.06172839506172839,0,0,0.06172839506172839,0,0)" xlink:href="#av"/><use transform="matrix(0.06172839506172839,0,0,0.06172839506172839,12.345679012345679,0)" xlink:href="#aq"/><use transform="matrix(0.06172839506172839,0,0,0.06172839506172839,19.691358024691358,0)" xlink:href="#aX"/><use transform="matrix(0.06172839506172839,0,0,0.06172839506172839,32.03703703703704,0)" xlink:href="#aq"/><use transform="matrix(0.06172839506172839,0,0,0.06172839506172839,39.382716049382715,0)" xlink:href="#ar"/><use transform="matrix(0.06172839506172839,0,0,0.06172839506172839,52.901234567901234,0)" xlink:href="#av"/><use transform="matrix(0.06172839506172839,0,0,0.06172839506172839,65.24691358024691,0)" xlink:href="#ay"/><use transform="matrix(0.06172839506172839,0,0,0.06172839506172839,77.5925925925926,0)" xlink:href="#az"/><use transform="matrix(0.06172839506172839,0,0,0.06172839506172839,83.76543209876543,0)" xlink:href="#aA"/></g><g id="Z"><use transform="matrix(0.06172839506172839,0,0,0.06172839506172839,0,0)" xlink:href="#aD"/><use transform="matrix(0.06172839506172839,0,0,0.06172839506172839,11.11111111111111,0)" xlink:href="#aE"/><use transform="matrix(0.06172839506172839,0,0,0.06172839506172839,17.28395061728395,0)" xlink:href="#aK"/><use transform="matrix(0.06172839506172839,0,0,0.06172839506172839,29.629629629629626,0)" xlink:href="#aE"/><use transform="matrix(0.06172839506172839,0,0,0.06172839506172839,35.80246913580247,0)" xlink:href="#aF"/><use transform="matrix(0.06172839506172839,0,0,0.06172839506172839,48.148148148148145,0)" xlink:href="#aD"/><use transform="matrix(0.06172839506172839,0,0,0.06172839506172839,59.25925925925925,0)" xlink:href="#aJ"/><use transform="matrix(0.06172839506172839,0,0,0.06172839506172839,71.60493827160494,0)" xlink:href="#aI"/><use transform="matrix(0.06172839506172839,0,0,0.06172839506172839,83.95061728395062,0)" xlink:href="#aK"/><use transform="matrix(0.06172839506172839,0,0,0.06172839506172839,96.2962962962963,0)" xlink:href="#aL"/><use transform="matrix(0.06172839506172839,0,0,0.06172839506172839,114.75308641975309,0)" xlink:href="#aH"/></g><path fill="#3a414a" d="M199 0l-22-63H83L61 0H9l90-248h61L250 0h-51zm-33-102l-36-108c-10 38-24 72-36 108h72" id="bI"/><path fill="#3a414a" d="M195-6C206 82 75 100 31 46c-4-6-6-13-8-21l49-6c3 16 16 24 34 25 40 0 42-37 40-79-11 22-30 35-61 35-53 0-70-43-70-97 0-56 18-96 73-97 30 0 46 14 59 34l2-30h47zm-90-29c32 0 41-27 41-63 0-35-9-62-40-62-32 0-39 29-40 63 0 36 9 62 39 62" id="bJ"/><g id="aa"><use transform="matrix(0.06172839506172839,0,0,0.06172839506172839,0,0)" xlink:href="#bI"/><use transform="matrix(0.06172839506172839,0,0,0.06172839506172839,15.987654320987653,0)" xlink:href="#av"/><use transform="matrix(0.06172839506172839,0,0,0.06172839506172839,28.333333333333332,0)" xlink:href="#av"/><use transform="matrix(0.06172839506172839,0,0,0.06172839506172839,40.67901234567901,0)" xlink:href="#bv"/><use transform="matrix(0.06172839506172839,0,0,0.06172839506172839,46.851851851851855,0)" xlink:href="#bJ"/><use transform="matrix(0.06172839506172839,0,0,0.06172839506172839,60.370370370370374,0)" xlink:href="#au"/><use transform="matrix(0.06172839506172839,0,0,0.06172839506172839,73.88888888888889,0)" xlink:href="#bE"/><use transform="matrix(0.06172839506172839,0,0,0.06172839506172839,93.64197530864197,0)" xlink:href="#at"/><use transform="matrix(0.06172839506172839,0,0,0.06172839506172839,105.98765432098766,0)" xlink:href="#au"/><use transform="matrix(0.06172839506172839,0,0,0.06172839506172839,119.50617283950618,0)" xlink:href="#aq"/><use transform="matrix(0.06172839506172839,0,0,0.06172839506172839,126.85185185185188,0)" xlink:href="#av"/></g><g id="ab"><use transform="matrix(0.06172839506172839,0,0,0.06172839506172839,0,0)" xlink:href="#aX"/><use transform="matrix(0.06172839506172839,0,0,0.06172839506172839,12.345679012345679,0)" xlink:href="#av"/><use transform="matrix(0.06172839506172839,0,0,0.06172839506172839,24.691358024691358,0)" xlink:href="#av"/><use transform="matrix(0.06172839506172839,0,0,0.06172839506172839,37.03703703703704,0)" xlink:href="#bv"/><use transform="matrix(0.06172839506172839,0,0,0.06172839506172839,43.20987654320988,0)" xlink:href="#bJ"/><use transform="matrix(0.06172839506172839,0,0,0.06172839506172839,56.7283950617284,0)" xlink:href="#au"/><use transform="matrix(0.06172839506172839,0,0,0.06172839506172839,70.24691358024691,0)" xlink:href="#bE"/><use transform="matrix(0.06172839506172839,0,0,0.06172839506172839,90,0)" xlink:href="#at"/><use transform="matrix(0.06172839506172839,0,0,0.06172839506172839,102.34567901234568,0)" xlink:href="#au"/><use transform="matrix(0.06172839506172839,0,0,0.06172839506172839,115.8641975308642,0)" xlink:href="#aq"/><use transform="matrix(0.06172839506172839,0,0,0.06172839506172839,123.20987654320989,0)" xlink:href="#ay"/><use transform="matrix(0.06172839506172839,0,0,0.06172839506172839,135.55555555555557,0)" xlink:href="#az"/><use transform="matrix(0.06172839506172839,0,0,0.06172839506172839,141.7283950617284,0)" xlink:href="#aA"/></g><path fill="#3a414a" d="M186 0v-106H76V0H24v-248h52v99h110v-99h50V0h-50" id="bK"/><path fill="#3a414a" d="M231 0h-52l-39-155L100 0H48L-1-190h46L77-45c9-52 24-97 36-145h53l37 145 32-145h46" id="bL"/><path fill="#3a414a" d="M147 0L96-86 75-71V0H25v-261h50v150l67-79h53l-66 74L201 0h-54" id="bM"/><g id="ac"><use transform="matrix(0.06172839506172839,0,0,0.06172839506172839,0,0)" xlink:href="#bK"/><use transform="matrix(0.06172839506172839,0,0,0.06172839506172839,15.987654320987653,0)" xlink:href="#bC"/><use transform="matrix(0.06172839506172839,0,0,0.06172839506172839,29.50617283950617,0)" xlink:href="#bE"/><use transform="matrix(0.06172839506172839,0,0,0.06172839506172839,49.25925925925925,0)" xlink:href="#at"/><use transform="matrix(0.06172839506172839,0,0,0.06172839506172839,61.60493827160493,0)" xlink:href="#bL"/><use transform="matrix(0.06172839506172839,0,0,0.06172839506172839,78.88888888888889,0)" xlink:href="#bC"/><use transform="matrix(0.06172839506172839,0,0,0.06172839506172839,92.4074074074074,0)" xlink:href="#bM"/><use transform="matrix(0.06172839506172839,0,0,0.06172839506172839,104.75308641975309,0)" xlink:href="#av"/></g><g id="ad"><use transform="matrix(0.06172839506172839,0,0,0.06172839506172839,0,0)" xlink:href="#aZ"/><use transform="matrix(0.06172839506172839,0,0,0.06172839506172839,13.518518518518517,0)" xlink:href="#bC"/><use transform="matrix(0.06172839506172839,0,0,0.06172839506172839,27.037037037037035,0)" xlink:href="#bE"/><use transform="matrix(0.06172839506172839,0,0,0.06172839506172839,46.79012345679012,0)" xlink:href="#at"/><use transform="matrix(0.06172839506172839,0,0,0.06172839506172839,59.1358024691358,0)" xlink:href="#bL"/><use transform="matrix(0.06172839506172839,0,0,0.06172839506172839,76.41975308641975,0)" xlink:href="#bC"/><use transform="matrix(0.06172839506172839,0,0,0.06172839506172839,89.93827160493827,0)" xlink:href="#bw"/><use transform="matrix(0.06172839506172839,0,0,0.06172839506172839,98.58024691358024,0)" xlink:href="#bM"/><use transform="matrix(0.06172839506172839,0,0,0.06172839506172839,110.92592592592592,0)" xlink:href="#ay"/><use transform="matrix(0.06172839506172839,0,0,0.06172839506172839,123.27160493827161,0)" xlink:href="#az"/><use transform="matrix(0.06172839506172839,0,0,0.06172839506172839,129.44444444444446,0)" xlink:href="#aA"/></g><g id="ae"><use transform="matrix(0.06172839506172839,0,0,0.06172839506172839,0,0)" xlink:href="#bs"/><use transform="matrix(0.06172839506172839,0,0,0.06172839506172839,15.987654320987653,0)" xlink:href="#bt"/><use transform="matrix(0.06172839506172839,0,0,0.06172839506172839,22.160493827160494,0)" xlink:href="#aX"/><use transform="matrix(0.06172839506172839,0,0,0.06172839506172839,34.50617283950617,0)" xlink:href="#av"/><use transform="matrix(0.06172839506172839,0,0,0.06172839506172839,46.85185185185185,0)" xlink:href="#av"/></g><g id="af"><use transform="matrix(0.06172839506172839,0,0,0.06172839506172839,0,0)" xlink:href="#bI"/><use transform="matrix(0.06172839506172839,0,0,0.06172839506172839,15.987654320987653,0)" xlink:href="#av"/><use transform="matrix(0.06172839506172839,0,0,0.06172839506172839,28.333333333333332,0)" xlink:href="#av"/><use transform="matrix(0.06172839506172839,0,0,0.06172839506172839,40.67901234567901,0)" xlink:href="#bv"/><use transform="matrix(0.06172839506172839,0,0,0.06172839506172839,46.851851851851855,0)" xlink:href="#bJ"/><use transform="matrix(0.06172839506172839,0,0,0.06172839506172839,60.370370370370374,0)" xlink:href="#au"/><use transform="matrix(0.06172839506172839,0,0,0.06172839506172839,73.88888888888889,0)" xlink:href="#bE"/><use transform="matrix(0.06172839506172839,0,0,0.06172839506172839,93.64197530864197,0)" xlink:href="#at"/><use transform="matrix(0.06172839506172839,0,0,0.06172839506172839,105.98765432098766,0)" xlink:href="#au"/><use transform="matrix(0.06172839506172839,0,0,0.06172839506172839,119.50617283950618,0)" xlink:href="#aq"/><use transform="matrix(0.06172839506172839,0,0,0.06172839506172839,126.85185185185188,0)" xlink:href="#av"/></g><g id="ag"><use transform="matrix(0.06172839506172839,0,0,0.06172839506172839,0,0)" xlink:href="#aw"/><use transform="matrix(0.06172839506172839,0,0,0.06172839506172839,14.814814814814813,0)" xlink:href="#bw"/><use transform="matrix(0.06172839506172839,0,0,0.06172839506172839,23.456790123456788,0)" xlink:href="#bC"/><use transform="matrix(0.06172839506172839,0,0,0.06172839506172839,36.9753086419753,0)" xlink:href="#aW"/><use transform="matrix(0.06172839506172839,0,0,0.06172839506172839,50.49382716049382,0)" xlink:href="#bt"/><use transform="matrix(0.06172839506172839,0,0,0.06172839506172839,56.666666666666664,0)" xlink:href="#at"/><use transform="matrix(0.06172839506172839,0,0,0.06172839506172839,69.01234567901234,0)" xlink:href="#bE"/><use transform="matrix(0.06172839506172839,0,0,0.06172839506172839,88.76543209876543,0)" xlink:href="#av"/></g><g id="ah"><use transform="matrix(0.06172839506172839,0,0,0.06172839506172839,0,0)" xlink:href="#bK"/><use transform="matrix(0.06172839506172839,0,0,0.06172839506172839,15.987654320987653,0)" xlink:href="#bC"/><use transform="matrix(0.06172839506172839,0,0,0.06172839506172839,29.50617283950617,0)" xlink:href="#bE"/><use transform="matrix(0.06172839506172839,0,0,0.06172839506172839,49.25925925925925,0)" xlink:href="#at"/><use transform="matrix(0.06172839506172839,0,0,0.06172839506172839,61.60493827160493,0)" xlink:href="#bL"/><use transform="matrix(0.06172839506172839,0,0,0.06172839506172839,78.88888888888889,0)" xlink:href="#bC"/><use transform="matrix(0.06172839506172839,0,0,0.06172839506172839,92.4074074074074,0)" xlink:href="#bw"/><use transform="matrix(0.06172839506172839,0,0,0.06172839506172839,101.04938271604938,0)" xlink:href="#bM"/></g><g id="ai"><use transform="matrix(0.06172839506172839,0,0,0.06172839506172839,0,0)" xlink:href="#ap"/><use transform="matrix(0.06172839506172839,0,0,0.06172839506172839,14.814814814814813,0)" xlink:href="#aq"/><use transform="matrix(0.06172839506172839,0,0,0.06172839506172839,22.160493827160494,0)" xlink:href="#ar"/><use transform="matrix(0.06172839506172839,0,0,0.06172839506172839,35.67901234567901,0)" xlink:href="#as"/><use transform="matrix(0.06172839506172839,0,0,0.06172839506172839,49.19753086419753,0)" xlink:href="#at"/><use transform="matrix(0.06172839506172839,0,0,0.06172839506172839,61.54320987654321,0)" xlink:href="#au"/><use transform="matrix(0.06172839506172839,0,0,0.06172839506172839,75.06172839506172,0)" xlink:href="#aq"/></g><g id="aj"><use transform="matrix(0.06172839506172839,0,0,0.06172839506172839,0,0)" xlink:href="#bs"/><use transform="matrix(0.06172839506172839,0,0,0.06172839506172839,15.987654320987653,0)" xlink:href="#bt"/><use transform="matrix(0.06172839506172839,0,0,0.06172839506172839,22.160493827160494,0)" xlink:href="#aX"/><use transform="matrix(0.06172839506172839,0,0,0.06172839506172839,34.50617283950617,0)" xlink:href="#av"/><use transform="matrix(0.06172839506172839,0,0,0.06172839506172839,46.85185185185185,0)" xlink:href="#av"/></g><g id="ak"><use transform="matrix(0.06172839506172839,0,0,0.06172839506172839,0,0)" xlink:href="#az"/><use transform="matrix(0.06172839506172839,0,0,0.06172839506172839,6.172839506172839,0)" xlink:href="#aA"/></g><path fill="#3a414a" d="M177-190C167-65 218 103 67 71c-23-6-38-20-44-43l32-5c15 47 100 32 89-28v-30C133-14 115 1 83 1 29 1 15-40 15-95c0-56 16-97 71-98 29-1 48 16 59 35 1-10 0-23 2-32h30zM94-22c36 0 50-32 50-73 0-42-14-75-50-75-39 0-46 34-46 75s6 73 46 73" id="bN"/><g id="al"><use transform="matrix(0.06172839506172839,0,0,0.06172839506172839,0,0)" xlink:href="#aK"/><use transform="matrix(0.06172839506172839,0,0,0.06172839506172839,12.345679012345679,0)" xlink:href="#aE"/><use transform="matrix(0.06172839506172839,0,0,0.06172839506172839,18.51851851851852,0)" xlink:href="#aE"/><use transform="matrix(0.06172839506172839,0,0,0.06172839506172839,24.691358024691358,0)" xlink:href="#aH"/><use transform="matrix(0.06172839506172839,0,0,0.06172839506172839,37.03703703703704,0)" xlink:href="#aI"/><use transform="matrix(0.06172839506172839,0,0,0.06172839506172839,49.382716049382715,0)" xlink:href="#aG"/><use transform="matrix(0.06172839506172839,0,0,0.06172839506172839,61.72839506172839,0)" xlink:href="#aK"/><use transform="matrix(0.06172839506172839,0,0,0.06172839506172839,74.07407407407408,0)" xlink:href="#aI"/><use transform="matrix(0.06172839506172839,0,0,0.06172839506172839,86.41975308641976,0)" xlink:href="#ba"/><use transform="matrix(0.06172839506172839,0,0,0.06172839506172839,97.53086419753087,0)" xlink:href="#aH"/><use transform="matrix(0.06172839506172839,0,0,0.06172839506172839,109.87654320987656,0)" xlink:href="#aJ"/><use transform="matrix(0.06172839506172839,0,0,0.06172839506172839,122.22222222222224,0)" xlink:href="#by"/><use transform="matrix(0.06172839506172839,0,0,0.06172839506172839,134.56790123456793,0)" xlink:href="#aH"/><use transform="matrix(0.06172839506172839,0,0,0.06172839506172839,146.9135802469136,0)" xlink:href="#bk"/><use transform="matrix(0.06172839506172839,0,0,0.06172839506172839,154.25925925925927,0)" xlink:href="#ba"/><use transform="matrix(0.06172839506172839,0,0,0.06172839506172839,165.37037037037038,0)" xlink:href="#aH"/><use transform="matrix(0.06172839506172839,0,0,0.06172839506172839,177.71604938271605,0)" xlink:href="#aI"/><use transform="matrix(0.06172839506172839,0,0,0.06172839506172839,190.06172839506172,0)" xlink:href="#aE"/><use transform="matrix(0.06172839506172839,0,0,0.06172839506172839,196.23456790123456,0)" xlink:href="#aK"/><use transform="matrix(0.06172839506172839,0,0,0.06172839506172839,208.58024691358023,0)" xlink:href="#bN"/><use transform="matrix(0.06172839506172839,0,0,0.06172839506172839,220.9259259259259,0)" xlink:href="#aH"/></g><g id="am"><use transform="matrix(0.06172839506172839,0,0,0.06172839506172839,0,0)" xlink:href="#bb"/><use transform="matrix(0.06172839506172839,0,0,0.06172839506172839,15.987654320987653,0)" xlink:href="#bc"/><use transform="matrix(0.06172839506172839,0,0,0.06172839506172839,30.80246913580247,0)" xlink:href="#aP"/><use transform="matrix(0.06172839506172839,0,0,0.06172839506172839,46.79012345679012,0)" xlink:href="#bd"/><use transform="matrix(0.06172839506172839,0,0,0.06172839506172839,52.96296296296296,0)" xlink:href="#be"/><use transform="matrix(0.06172839506172839,0,0,0.06172839506172839,71.41975308641975,0)" xlink:href="#aN"/><use transform="matrix(0.06172839506172839,0,0,0.06172839506172839,86.23456790123456,0)" xlink:href="#bj"/><use transform="matrix(0.06172839506172839,0,0,0.06172839506172839,98.58024691358024,0)" xlink:href="#aR"/><use transform="matrix(0.06172839506172839,0,0,0.06172839506172839,105.92592592592592,0)" xlink:href="#aS"/><use transform="matrix(0.06172839506172839,0,0,0.06172839506172839,118.27160493827161,0)" xlink:href="#bf"/><use transform="matrix(0.06172839506172839,0,0,0.06172839506172839,124.44444444444444,0)" xlink:href="#bg"/><use transform="matrix(0.06172839506172839,0,0,0.06172839506172839,136.79012345679013,0)" xlink:href="#aU"/></g><g id="an"><use transform="matrix(0.06172839506172839,0,0,0.06172839506172839,0,0)" xlink:href="#aE"/><use transform="matrix(0.06172839506172839,0,0,0.06172839506172839,6.172839506172839,0)" xlink:href="#bz"/><use transform="matrix(0.06172839506172839,0,0,0.06172839506172839,11.049382716049383,0)" xlink:href="#aL"/><use transform="matrix(0.06172839506172839,0,0,0.06172839506172839,29.50617283950617,0)" xlink:href="#aH"/><use transform="matrix(0.06172839506172839,0,0,0.06172839506172839,41.85185185185185,0)" xlink:href="#bu"/><use transform="matrix(0.06172839506172839,0,0,0.06172839506172839,46.72839506172839,0)" xlink:href="#bz"/><use transform="matrix(0.06172839506172839,0,0,0.06172839506172839,51.60493827160494,0)" xlink:href="#aI"/><use transform="matrix(0.06172839506172839,0,0,0.06172839506172839,63.95061728395061,0)" xlink:href="#aH"/></g><g id="ao"><use transform="matrix(0.06172839506172839,0,0,0.06172839506172839,0,0)" xlink:href="#bn"/><use transform="matrix(0.06172839506172839,0,0,0.06172839506172839,13.518518518518517,0)" xlink:href="#bd"/><use transform="matrix(0.06172839506172839,0,0,0.06172839506172839,19.691358024691358,0)" xlink:href="#be"/><use transform="matrix(0.06172839506172839,0,0,0.06172839506172839,38.148148148148145,0)" xlink:href="#bc"/><use transform="matrix(0.06172839506172839,0,0,0.06172839506172839,52.96296296296296,0)" xlink:href="#bi"/><use transform="matrix(0.06172839506172839,0,0,0.06172839506172839,67.77777777777777,0)" xlink:href="#bn"/><use transform="matrix(0.06172839506172839,0,0,0.06172839506172839,79.62962962962962,0)" xlink:href="#aN"/><use transform="matrix(0.06172839506172839,0,0,0.06172839506172839,94.44444444444443,0)" xlink:href="#be"/><use transform="matrix(0.06172839506172839,0,0,0.06172839506172839,112.90123456790121,0)" xlink:href="#bh"/></g></defs></g></svg>